<svg id="Layer_1" data-name="Layer 1" xmlns="http://www.w3.org/2000/svg" viewBox="0 0 175.11 27"><defs><style>.cls-1{fill:#fff;}.cls-2{fill:#6b56d0;}.cls-3{fill:#2ff6e6;}</style></defs><title>FL_Logo_Horizontal</title><path class="cls-1" d="M95.37,151H92.44V137h8v2.43h-5.1v3.62h4.75v2.42H95.37Z" transform="translate(-56.44 -130.5)"/><path class="cls-1" d="M103.21,151V137h3v14Z" transform="translate(-56.44 -130.5)"/><path class="cls-1" d="M122.13,151h-3.77l-6.09-10.6h-.09c.12,1.87.18,3.21.18,4V151h-2.65V137h3.74l6.09,10.49h.06c-.09-1.82-.14-3.1-.14-3.86V137h2.67Z" transform="translate(-56.44 -130.5)"/><path class="cls-1" d="M134.23,151l-1-3.34h-5.11l-1,3.34h-3.2l4.94-14.07h3.63l5,14.07Zm-1.72-5.83-1.59-5.12c-.11-.4-.2-.71-.25-.94q-.31,1.23-1.81,6.06Z" transform="translate(-56.44 -130.5)"/><path class="cls-1" d="M139.2,151V137h3v11.56h5.68V151Z" transform="translate(-56.44 -130.5)"/><path class="cls-1" d="M150.28,151V137h3v14Z" transform="translate(-56.44 -130.5)"/><path class="cls-1" d="M162.18,151h-3V139.47h-3.8V137H166v2.47h-3.81Z" transform="translate(-56.44 -130.5)"/><path class="cls-1" d="M172.5,142.77l2.92-5.77h3.2L174,145.56V151H171v-5.36L166.38,137h3.22Z" transform="translate(-56.44 -130.5)"/><path class="cls-1" d="M185.48,151V137h3v11.56h5.68V151Z" transform="translate(-56.44 -130.5)"/><path class="cls-1" d="M205.14,151l-1-3.34H199L198,151h-3.2l4.95-14.07h3.63l5,14.07Zm-1.72-5.83-1.59-5.12c-.12-.4-.2-.71-.25-.94-.21.82-.82,2.84-1.81,6.06Z" transform="translate(-56.44 -130.5)"/><path class="cls-1" d="M210.11,137h4.35a8.36,8.36,0,0,1,4.33.85,2.94,2.94,0,0,1,1.35,2.7,3.44,3.44,0,0,1-.59,2.06,2.36,2.36,0,0,1-1.57,1v.1a3.09,3.09,0,0,1,1.92,1.11,3.65,3.65,0,0,1,.59,2.17,3.59,3.59,0,0,1-1.38,3,6,6,0,0,1-3.76,1.07h-5.24Zm3,5.55h1.72a3.15,3.15,0,0,0,1.75-.38,1.38,1.38,0,0,0,.54-1.23,1.26,1.26,0,0,0-.59-1.16,3.8,3.8,0,0,0-1.86-.35h-1.56Zm0,2.36v3.65H215a2.88,2.88,0,0,0,1.81-.47,1.76,1.76,0,0,0,.59-1.44c0-1.16-.83-1.74-2.5-1.74Z" transform="translate(-56.44 -130.5)"/><path class="cls-1" d="M231.56,147.12a3.64,3.64,0,0,1-1.37,3,5.93,5.93,0,0,1-3.8,1.09,8.94,8.94,0,0,1-4-.84V147.6a15.8,15.8,0,0,0,2.4.89,7.16,7.16,0,0,0,1.79.26,2.56,2.56,0,0,0,1.5-.38,1.27,1.27,0,0,0,.52-1.11,1.18,1.18,0,0,0-.23-.73,2.55,2.55,0,0,0-.67-.62,17.86,17.86,0,0,0-1.82-.95A8.66,8.66,0,0,1,224,143.8a4.41,4.41,0,0,1-1-1.29,3.76,3.76,0,0,1-.38-1.72,3.64,3.64,0,0,1,1.26-2.93,5.22,5.22,0,0,1,3.48-1.06,8.43,8.43,0,0,1,2.09.26,13.22,13.22,0,0,1,2.07.73l-1,2.31a15.13,15.13,0,0,0-1.85-.65,6,6,0,0,0-1.44-.18,1.92,1.92,0,0,0-1.3.39,1.32,1.32,0,0,0-.45,1,1.25,1.25,0,0,0,.18.68,2.1,2.1,0,0,0,.58.57,18.93,18.93,0,0,0,1.89,1,7.68,7.68,0,0,1,2.69,1.88A3.74,3.74,0,0,1,231.56,147.12Z" transform="translate(-56.44 -130.5)"/><polygon class="cls-2" points="6.53 2.94 2.17 2.94 4.36 5.87 4.36 5.87 6.53 2.94 6.53 2.94"/><polygon class="cls-3" points="4.35 0 4.35 0 2.18 2.93 2.18 2.94 6.53 2.94 24.82 2.94 27 0 4.35 0"/><polygon class="cls-3" points="4.36 11.74 0 11.74 9.14 24.07 11.32 27 15.68 27 4.36 11.74"/><polygon class="cls-2" points="15.68 15.26 8.71 5.87 6.53 8.81 13.5 18.2 15.68 15.26"/><polygon class="cls-3" points="20.47 8.8 22.64 5.87 8.71 5.87 6.53 8.81 15.24 8.8 20.47 8.8"/><polygon class="cls-2" points="17.85 18.2 13.5 24.07 15.68 27 22.21 18.2 17.85 18.2"/></svg>