<svg xmlns="http://www.w3.org/2000/svg" xmlns:xlink="http://www.w3.org/1999/xlink" viewBox="0 0 2493.67 1438.3"><defs><linearGradient id="linear-gradient" x1="1247.75" y1="1820.64" x2="1247.75" y2="901.75" gradientUnits="userSpaceOnUse"><stop offset="0" stop-color="#29e6df"/><stop offset="1" stop-color="#0e061e"/></linearGradient><linearGradient id="linear-gradient-2" x1="733.98" y1="1244.44" x2="733.98" y2="738.18" gradientUnits="userSpaceOnUse"><stop offset="0" stop-color="#20999c"/><stop offset="1" stop-color="#0e061e"/></linearGradient><linearGradient id="linear-gradient-3" x1="734.01" y1="648.61" x2="734.01" y2="1384.44" gradientUnits="userSpaceOnUse"><stop offset="0" stop-color="#ff5767" stop-opacity="0"/><stop offset="0.5" stop-color="#ff5767"/></linearGradient><linearGradient id="linear-gradient-4" x1="734.01" y1="724.09" x2="734.01" y2="1271.36" xlink:href="#linear-gradient-3"/><linearGradient id="linear-gradient-5" x1="234.94" y1="1374.82" x2="234.94" y2="1218.98" gradientUnits="userSpaceOnUse"><stop offset="0" stop-color="#ff5767" stop-opacity="0"/><stop offset="0.53" stop-color="#ff5767" stop-opacity="0.97"/><stop offset="1" stop-color="#ff5767"/></linearGradient><linearGradient id="linear-gradient-6" x1="294.99" y1="1420.82" x2="294.99" y2="1264.98" xlink:href="#linear-gradient-5"/><linearGradient id="linear-gradient-7" x1="1171.74" y1="1420.82" x2="1171.74" y2="1264.98" xlink:href="#linear-gradient-5"/><linearGradient id="linear-gradient-8" x1="1233.95" y1="1379.07" x2="1233.95" y2="1217.09" gradientUnits="userSpaceOnUse"><stop offset="0" stop-color="#ff5767" stop-opacity="0"/><stop offset="0.79" stop-color="#ff5767"/></linearGradient><linearGradient id="linear-gradient-9" x1="-1.39" y1="1133.36" x2="403.87" y2="1133.36" gradientUnits="userSpaceOnUse"><stop offset="0" stop-color="#ff5767" stop-opacity="0"/><stop offset="0.49" stop-color="#ff5767"/><stop offset="1" stop-color="#ff5767" stop-opacity="0"/></linearGradient><linearGradient id="linear-gradient-10" x1="1270.51" y1="1444.8" x2="1270.51" y2="816.5" xlink:href="#linear-gradient-9"/><linearGradient id="linear-gradient-11" x1="2095.62" y1="1132.53" x2="2495.07" y2="1132.53" gradientUnits="userSpaceOnUse"><stop offset="0" stop-color="#ff5767" stop-opacity="0"/><stop offset="0.29" stop-color="#ff5767"/><stop offset="0.68" stop-color="#ff5767" stop-opacity="0"/></linearGradient><linearGradient id="linear-gradient-12" x1="1809.75" y1="1132.63" x2="2086.11" y2="1132.63" xlink:href="#linear-gradient-9"/><linearGradient id="linear-gradient-13" x1="1526.25" y1="1131.77" x2="1688.7" y2="1131.77" xlink:href="#linear-gradient-9"/><linearGradient id="linear-gradient-14" x1="1233.95" y1="1249.57" x2="2501.75" y2="1249.57" gradientUnits="userSpaceOnUse"><stop offset="0.41" stop-color="#ff5767"/><stop offset="1" stop-color="#ff5767" stop-opacity="0"/></linearGradient><linearGradient id="linear-gradient-15" x1="1318.31" y1="1249.57" x2="1539.26" y2="1249.57" gradientTransform="matrix(-1, 0, 0, 1, 1553.77, 0)" xlink:href="#linear-gradient-14"/><linearGradient id="linear-gradient-16" x1="1180.77" y1="1067.84" x2="2501.75" y2="1067.84" gradientUnits="userSpaceOnUse"><stop offset="0.39" stop-color="#ff5767"/><stop offset="1" stop-color="#ff5767" stop-opacity="0"/></linearGradient><linearGradient id="linear-gradient-17" x1="14.51" y1="1067.84" x2="282.1" y2="1067.84" gradientUnits="userSpaceOnUse"><stop offset="0" stop-color="#ff5767" stop-opacity="0"/><stop offset="0.61" stop-color="#ff5767" stop-opacity="0.61"/></linearGradient><linearGradient id="linear-gradient-18" x1="1137.36" y1="924.04" x2="2511.74" y2="924.04" xlink:href="#linear-gradient-9"/><linearGradient id="linear-gradient-19" x1="1156.56" y1="924.04" x2="1450.46" y2="924.04" gradientTransform="matrix(-1, 0, 0, 1, 1484.98, 0)" gradientUnits="userSpaceOnUse"><stop offset="0.39" stop-color="#ff5767" stop-opacity="0.61"/><stop offset="1" stop-color="#ff5767" stop-opacity="0"/></linearGradient><linearGradient id="linear-gradient-20" x1="1100.24" y1="820.34" x2="2629.06" y2="820.34" gradientUnits="userSpaceOnUse"><stop offset="0" stop-color="#ff5767" stop-opacity="0"/><stop offset="0.49" stop-color="#ff5767" stop-opacity="0.55"/><stop offset="0.83" stop-color="#ff5767" stop-opacity="0"/></linearGradient><linearGradient id="linear-gradient-21" x1="729.91" y1="631.31" x2="729.91" y2="478.36" gradientUnits="userSpaceOnUse"><stop offset="0" stop-color="#3e178c"/><stop offset="1" stop-color="#0a0022"/></linearGradient><linearGradient id="linear-gradient-22" x1="1175.48" y1="575.8" x2="439.48" y2="1135.8" gradientUnits="userSpaceOnUse"><stop offset="0" stop-color="#ff5767" stop-opacity="0.9"/><stop offset="0.3" stop-color="#e21e5e"/><stop offset="0.64" stop-color="#7e006e"/><stop offset="0.72" stop-color="#790270"/><stop offset="0.82" stop-color="#6a0777"/><stop offset="0.93" stop-color="#521083"/><stop offset="1" stop-color="#3e178c"/></linearGradient><linearGradient id="linear-gradient-23" x1="585.44" y1="694.54" x2="515.06" y2="781.35" gradientUnits="userSpaceOnUse"><stop offset="0.01" stop-color="#5cfffc"/><stop offset="1" stop-color="#3e178c"/></linearGradient><linearGradient id="linear-gradient-24" x1="1039.3" y1="154.11" x2="460.67" y2="561.75" xlink:href="#linear-gradient-22"/><linearGradient id="linear-gradient-25" x1="600.41" y1="461.53" x2="1095.07" y2="136.2" gradientUnits="userSpaceOnUse"><stop offset="0.01" stop-color="#030011"/><stop offset="1" stop-color="#3e178c"/></linearGradient><linearGradient id="linear-gradient-26" x1="740.94" y1="550.56" x2="740.94" y2="588.31" xlink:href="#linear-gradient-23"/><linearGradient id="linear-gradient-27" x1="457.85" y1="874.47" x2="747.76" y2="874.47" xlink:href="#linear-gradient-25"/><linearGradient id="linear-gradient-28" x1="838.35" y1="1159.24" x2="1051.79" y2="1159.24" xlink:href="#linear-gradient-25"/><linearGradient id="linear-gradient-29" x1="622.07" y1="1149.5" x2="622.07" y2="1170.52" gradientUnits="userSpaceOnUse"><stop offset="0" stop-color="#030011"/><stop offset="1" stop-color="#7c016f" stop-opacity="0.61"/></linearGradient><linearGradient id="linear-gradient-30" x1="843.59" y1="825.48" x2="1004.92" y2="825.48" xlink:href="#linear-gradient-25"/><clipPath id="clip-path"><rect x="433.38" y="1149.29" width="377.44" height="202.03" fill="none"/></clipPath></defs><title>presale-groups3</title><g id="backg"><rect x="0.91" width="2493.67" height="1438.3" fill="url(#linear-gradient)"/></g><g id="column"><polygon points="398.32 729.1 238.14 1219.4 296.14 1263.36 1170.9 1263.36 1229.83 1219.42 1058.64 731.6 398.32 729.1" fill="url(#linear-gradient-2)"/><path d="M1062.89,729.26a4,4,0,0,0-3.75-2.65l-661-2.52h0a4,4,0,0,0-3.8,2.73L229.64,1219.59A4,4,0,0,0,231,1224l61.36,46.5a4,4,0,0,0,2.42.82h877.42a4,4,0,0,0,2.39-.8l62.38-46.5a4,4,0,0,0,1.37-4.55Zm108,534.1H296.14l-58-44L398.32,729.1l660.32,2.5,171.19,487.82Z" fill="url(#linear-gradient-3)"/><path d="M1062.89,729.26a4,4,0,0,0-3.75-2.65l-661-2.52h0a4,4,0,0,0-3.8,2.73L229.64,1219.59A4,4,0,0,0,231,1224l61.36,46.5a4,4,0,0,0,2.42.82h877.42a4,4,0,0,0,2.39-.8l62.38-46.5a4,4,0,0,0,1.37-4.55Zm108,534.1H296.14l-58-44L398.32,729.1l660.32,2.5,171.19,487.82Z" fill="url(#linear-gradient-4)"/><path d="M234.41,1372c2.37-3,0-153,0-153" fill="none" stroke-linejoin="round" stroke-width="9" stroke="url(#linear-gradient-5)"/><path d="M294.46,1418c2.37-3,0-153,0-153" fill="none" stroke-linejoin="round" stroke-width="9" stroke="url(#linear-gradient-6)"/><path d="M1171.22,1418c2.37-3,0-153,0-153" fill="none" stroke-linejoin="round" stroke-width="9" stroke="url(#linear-gradient-7)"/><line x1="1233.95" y1="1374.57" x2="1233.95" y2="1221.59" fill="none" stroke-linecap="round" stroke-linejoin="round" stroke-width="9" stroke="url(#linear-gradient-8)"/></g><g id="floor-lines"><line x1="402.48" y1="822.01" y2="1444.72" fill="none" stroke-linejoin="round" stroke-width="3.31" stroke="url(#linear-gradient-9)"/><line x1="1254.51" y1="816.59" x2="1286.51" y2="1444.72" fill="none" stroke-linejoin="round" stroke-width="3.31" stroke="url(#linear-gradient-10)"/><line x1="2097.02" y1="820.34" x2="2493.67" y2="1444.72" fill="none" stroke-linejoin="round" stroke-width="3.31" stroke="url(#linear-gradient-11)"/><line x1="1811.27" y1="820.54" x2="2084.59" y2="1444.72" fill="none" stroke-linejoin="round" stroke-width="3.31" stroke="url(#linear-gradient-12)"/><line x1="1527.86" y1="818.82" x2="1687.09" y2="1444.72" fill="none" stroke-linejoin="round" stroke-width="3.31" stroke="url(#linear-gradient-13)"/><line x1="2501.75" y1="1249.57" x2="1233.95" y2="1249.57" fill="none" stroke-linejoin="round" stroke-width="3.31" stroke="url(#linear-gradient-14)"/><line x1="14.51" y1="1249.57" x2="235.46" y2="1249.57" fill="none" stroke-linejoin="round" stroke-width="3.31" stroke="url(#linear-gradient-15)"/><line x1="2501.75" y1="1067.84" x2="1180.77" y2="1067.84" fill="none" stroke-linejoin="round" stroke-width="3.31" stroke="url(#linear-gradient-16)"/><line x1="14.51" y1="1067.84" x2="282.1" y2="1067.84" fill="none" stroke-linejoin="round" stroke-width="3.31" stroke="url(#linear-gradient-17)"/><line x1="2511.74" y1="924.04" x2="1137.36" y2="924.04" fill="none" stroke-linejoin="round" stroke-width="3.31" stroke="url(#linear-gradient-18)"/><line x1="34.51" y1="924.04" x2="328.42" y2="924.04" fill="none" stroke-linejoin="round" stroke-width="3.31" stroke="url(#linear-gradient-19)"/><line x1="2629.06" y1="820.34" x2="1100.24" y2="820.34" fill="none" stroke-linejoin="round" stroke-width="3.31" stroke="url(#linear-gradient-20)"/></g><g id="Capa_1" data-name="Capa 1"><polygon points="1122.05 1149.07 453.58 698.78 279.94 1182.49 328.99 1229.42 1030.21 1228.13 1122.05 1149.07" fill="#0e061e" opacity="0.3"/><line x1="678.09" y1="601.66" x2="777.32" y2="601.66" fill="none" stroke="#030011" stroke-linejoin="round" stroke-width="3.18"/><line x1="678.09" y1="615.74" x2="777.32" y2="615.74" fill="none" stroke="#030011" stroke-linejoin="round" stroke-width="3.18"/><line x1="678.09" y1="629.83" x2="777.32" y2="629.83" fill="none" stroke="#030011" stroke-linejoin="round" stroke-width="3.18"/><line x1="678.09" y1="643.91" x2="777.32" y2="643.91" fill="none" stroke="#030011" stroke-linejoin="round" stroke-width="3.18"/><line x1="632.2" y1="656.33" x2="632.2" y2="564.33" fill="none" stroke="#5cfffc" stroke-miterlimit="10" stroke-width="7"/><path d="M605.9,567.33c0,40,48.8,19.12,48.8,50.69s-41.55,1.07-41.55,50.7" fill="none" stroke="#ff5767" stroke-miterlimit="10" stroke-width="5.96"/><polygon points="997.4 655.99 460.42 653.81 343.52 1072.49 391.04 1119.42 1073.54 1119.42 1122.05 1072.49 997.4 655.99" stroke="#0e061e" stroke-miterlimit="10" stroke-width="3" fill="url(#linear-gradient-22)"/><path d="M459.48,928.47,423,1077.94c-2.05,8.4,4.06,16.55,12.41,16.55H592.2A13,13,0,0,0,605,1081.81l6.55-149.47a13.07,13.07,0,0,0-12.78-13.89H471.89A12.9,12.9,0,0,0,459.48,928.47Z" fill="none" stroke="#0e061e" stroke-miterlimit="10" stroke-width="3.06"/><polygon points="343.52 1072.49 392.04 1119.42 392.04 1195.99 343.52 1149.07 343.52 1072.49" fill="#3e178c" stroke="#030011" stroke-linecap="round" stroke-linejoin="round" stroke-width="3"/><polygon points="1122.05 1072.49 1073.54 1119.42 1073.54 1195.99 1122.05 1149.07 1122.05 1072.49" fill="#c81662" stroke="#0e061e" stroke-linecap="round" stroke-linejoin="round" stroke-width="3"/><rect x="392.04" y="1119.42" width="681.5" height="76.58" fill="#7c016f" stroke="#0e061e" stroke-linecap="round" stroke-linejoin="round" stroke-width="3"/><line x1="796.71" y1="846.48" x2="409.9" y2="846.48" fill="none" stroke="#030011" stroke-linejoin="round" stroke-width="3.01"/><path d="M404.49,867.67l-5.33-55a6.91,6.91,0,0,1,.23-2.56l42.33-151.34a7,7,0,0,1,13.54.24L466,703.11c-.65,7.88-4.75,11.76-11.29,12.84L448,688.38,413.22,812.62l5.21,53.7C413.29,869.75,408.55,870.75,404.49,867.67Z" fill="#5cfffc" stroke="#030011" stroke-linejoin="round" stroke-width="3"/><path d="M1057.33,867.67l8.58-55.3a6.91,6.91,0,0,0-.22-2.56l-45.59-151a7,7,0,0,0-13.54.24l-10.69,44.1c.65,7.88,4.75,11.76,11.29,12.84l6.69-27.57,38,123.94-8.46,54C1048.53,869.75,1053.27,870.75,1057.33,867.67Z" fill="#5cfffc" stroke="#030011" stroke-linejoin="round" stroke-width="3"/><polygon points="1057.36 1053.54 1049.56 1021.78 852.45 1021.27 857.73 1053.54 1057.36 1053.54" fill="#030011"/><polygon points="796.01 1011.89 792.69 975 624.86 974.4 624.76 1011.89 796.01 1011.89" fill="#030011"/><polygon points="793.82 968.79 790.08 931.89 624.23 931.3 622.09 968.79 793.82 968.79" fill="#030011"/><polygon points="766.43 1058.82 761.04 1018.88 654.45 1021.77 654.3 1062.55 766.43 1058.82" fill="#030011"/><polygon points="1064.74 1090.28 1056.94 1058.52 854.89 1058.05 860.96 1090.28 1064.74 1090.28" fill="#030011"/><path d="M909.63,1025.78q6.86,0,11,3.47a10.6,10.6,0,0,1,2.56,3,20.27,20.27,0,0,1,1.61,3.86,16.24,16.24,0,0,1,.76,3.86,5.07,5.07,0,0,1-.72,3q-2.07,3.46-8.92,3.47h-6l-6.35-20.64Zm13.21,14a14.22,14.22,0,0,0-.72-3.68,17.72,17.72,0,0,0-1.54-3.68,8.51,8.51,0,0,0-2.21-2.51,13.32,13.32,0,0,0-8.2-2.37h-3.28l5.26,17.12h3.28q5,0,6.74-2.37A4,4,0,0,0,922.84,1039.78Z" fill="#fff"/><path d="M928.69,1025.78h5.9c.69,0,1.27,0,1.72,0s1.07.07,1.86.15a12.14,12.14,0,0,1,2.31.47,13.12,13.12,0,0,1,2.2.88c2.52,1.3,4.08,3,4.7,5a4.17,4.17,0,0,1-1.64,5,6,6,0,0,1-1.42.77l7.94,8.39h-2.9l-7.43-7.79a26.23,26.23,0,0,1-3.34.17h-3.17l2.34,7.62H935Zm3.27,1.76,2.92,9.5h3.17c.79,0,1.44,0,1.93,0a9.76,9.76,0,0,0,1.79-.29,5,5,0,0,0,1.74-.74,3.18,3.18,0,0,0,1.18-1.58,3.43,3.43,0,0,0,0-2.1,5.43,5.43,0,0,0-1.26-2.11,7.69,7.69,0,0,0-2.15-1.57,8.74,8.74,0,0,0-1.56-.62,9.19,9.19,0,0,0-1.69-.32c-.58-.06-1.06-.1-1.41-.11s-.85,0-1.46,0Z" fill="#fff"/><path d="M957.7,1026.38a9.33,9.33,0,0,1,4.17-.84,13.11,13.11,0,0,1,4.68.84,12.79,12.79,0,0,1,3.74,2.12,10.47,10.47,0,0,1,1.43,1.47,15.59,15.59,0,0,1,1.07,1.49,13.21,13.21,0,0,1,.81,1.64c.27.64.46,1.14.57,1.49s.28.86.48,1.51.35,1.14.45,1.5.21.85.34,1.49a8.42,8.42,0,0,1,.19,1.64,6.78,6.78,0,0,1-.15,1.49,4.67,4.67,0,0,1-.52,1.47,5.49,5.49,0,0,1-2.44,2.12,9.33,9.33,0,0,1-4.17.84,13.07,13.07,0,0,1-4.68-.84,12.79,12.79,0,0,1-3.74-2.12,10.47,10.47,0,0,1-1.43-1.47,11.32,11.32,0,0,1-1.88-3.12c-.27-.64-.46-1.14-.58-1.5l-.47-1.5c-.2-.65-.35-1.15-.45-1.51s-.22-.85-.34-1.49a9.4,9.4,0,0,1-.2-1.64,8.15,8.15,0,0,1,.15-1.48,4.91,4.91,0,0,1,.53-1.48A5.55,5.55,0,0,1,957.7,1026.38Zm7.9,1.51a8.56,8.56,0,0,0-3.19-.59,6.09,6.09,0,0,0-2.84.59,4,4,0,0,0-1.68,1.49,4.12,4.12,0,0,0-.5,1.48,5.82,5.82,0,0,0,.05,1.8c.12.67.23,1.22.34,1.65s.28,1,.52,1.79.43,1.36.58,1.79.38,1,.68,1.65a8.34,8.34,0,0,0,1.05,1.8,8.87,8.87,0,0,0,1.41,1.47,9.14,9.14,0,0,0,2.6,1.5,8.76,8.76,0,0,0,3.19.58,6.18,6.18,0,0,0,2.83-.58,3.88,3.88,0,0,0,1.68-1.5,4.15,4.15,0,0,0,.51-1.47,5.89,5.89,0,0,0-.05-1.81c-.12-.67-.23-1.22-.34-1.64s-.28-1-.52-1.79-.43-1.36-.58-1.79-.38-1-.68-1.65a9.13,9.13,0,0,0-1-1.81,9.77,9.77,0,0,0-1.41-1.47A9.12,9.12,0,0,0,965.6,1027.89Z" fill="#fff"/><path d="M978.83,1025.77h5.9c.69,0,1.27,0,1.72,0s1.07.07,1.86.15a13,13,0,0,1,2.31.47,13.15,13.15,0,0,1,2.2.89c2.52,1.29,4.08,3,4.7,5a4.17,4.17,0,0,1-1.64,5,6.75,6.75,0,0,1-1.66.89,8.3,8.3,0,0,1-2,.47c-.74.08-1.32.13-1.76.15s-1,0-1.71,0h-3.17l2.34,7.63h-2.72Zm3.27,1.76L985,1037h3.17l1.44,0c.35,0,.8,0,1.35-.11a7,7,0,0,0,1.49-.32,4.57,4.57,0,0,0,1.18-.62,3.15,3.15,0,0,0,1.18-1.57,3.46,3.46,0,0,0,0-2.11,5.37,5.37,0,0,0-1.27-2.1,7.53,7.53,0,0,0-2.14-1.58,9,9,0,0,0-1.56-.61,9.19,9.19,0,0,0-1.69-.33c-.58-.06-1.06-.09-1.42-.11l-1.45,0Z" fill="#fff"/><path d="M880.5,1083.2h-2.73l-6.34-20.64h2.73l3.1,10.1,9.12-10.1h3l-7.71,8.72,16,11.92h-3.34l-14.09-10.57L878,1075Z" fill="#fff"/><path d="M912.85,1062.56l.54,1.75h-5.45l5.26,17.13h5.45l.54,1.76H905.57l-.54-1.76h5.45l-5.26-17.13h-5.45l-.54-1.76Z" fill="#fff"/><path d="M940.65,1062.55l.54,1.76H933l5.8,18.89h-2.72l-5.8-18.89h-8.18l-.54-1.76Z" fill="#fff"/><path d="M965.72,1062.55l.54,1.76h-8.18l5.8,18.89h-2.72l-5.8-18.89h-8.18l-.54-1.76Z" fill="#fff"/><path d="M988.06,1062.55l.54,1.76h-5.45l5.26,17.12h5.45l.54,1.76H980.78l-.54-1.75h5.45l-5.26-17.13H975l-.54-1.76Z" fill="#fff"/><path d="M998.14,1062.55h16.35l.54,1.76h-13.62l2.34,7.62h10.9l.54,1.76h-10.9l2.38,7.74h13.63l.54,1.76h-16.35Z" fill="#fff"/><path d="M1044.81,1077.54a3.59,3.59,0,0,1-1.29,4.27c-1.4,1.08-3.45,1.61-6.14,1.61q-3.44,0-8-.46l-.56-1.81q5,.51,8,.51a7.19,7.19,0,0,0,4.39-1.1,2.54,2.54,0,0,0,.86-3,4.37,4.37,0,0,0-1.36-2,7.48,7.48,0,0,0-2.35-1.35,18.1,18.1,0,0,0-3.84-.69,33,33,0,0,1-3.66-.5,11.38,11.38,0,0,1-4.28-1.9,6.24,6.24,0,0,1-2.39-3.24,3.45,3.45,0,0,1,1.16-4,8.52,8.52,0,0,1,5.52-1.56c2,0,4.64.12,8,.37l.54,1.77c-3.59-.25-6.26-.38-8-.38a5.69,5.69,0,0,0-3.75,1.06,2.38,2.38,0,0,0-.75,2.74,4.3,4.3,0,0,0,1.37,2,6.77,6.77,0,0,0,2.38,1.3,24.23,24.23,0,0,0,3.9.62,23.48,23.48,0,0,1,4.36.76,11.83,11.83,0,0,1,3.73,2A6.22,6.22,0,0,1,1044.81,1077.54Z" fill="#fff"/><rect x="604.66" y="812.52" width="160.38" height="9.55" fill="#3c1688" stroke="#030011" stroke-linejoin="round" stroke-width="3.18"/><path d="M506.29,693.13,580,691.2a14.46,14.46,0,0,1,14.78,15.67L586,811.14a14.45,14.45,0,0,1-14.4,13.23H480.41a14.45,14.45,0,0,1-14-18L492.67,704A14.44,14.44,0,0,1,506.29,693.13Z" fill="#3c1688" stroke="#030011" stroke-linejoin="round" stroke-width="3.18"/><path d="M506.29,686.06,580,687.13a14.45,14.45,0,0,1,14.78,15.67L586,804.07a14.45,14.45,0,0,1-14.4,13.23H480.41a14.45,14.45,0,0,1-14-18l26.26-102.35A14.45,14.45,0,0,1,506.29,686.06Z" stroke="#0e061e" stroke-miterlimit="10" stroke-width="3.26" fill="url(#linear-gradient-23)"/><polygon points="765.04 812.52 751.29 680.7 615.97 680.7 612.06 726.32 601.38 726.32 603.24 712 568.76 745.42 593.16 781.76 595.55 760.27 609.14 760.27 604.66 812.52 765.04 812.52" fill="#5cfffc" stroke="#030011" stroke-linejoin="round" stroke-width="3.26"/><path d="M624.7,725.06q1.47-17.92,2.95-35.84h31.68l-.1,7.17H634.64c-.19,2.89-.28,4.33-.47,7.22h23l-.13,7.16H633.69c-.19,2.85-.28,4.27-.47,7.12h25.72l-.1,7.17Z" fill="#030011"/><path d="M676.37,725.06q-.3-14.34-.62-28.67H662.48l0-7.17H696l.48,7.17H683.34l1.08,28.67Z" fill="#030011"/><path d="M702.42,725.06q-1.33-17.92-2.66-35.84h7.47l1.3,14.39h19.19c-.75-5.76-1.13-8.64-1.88-14.39h7.41q2.63,17.92,5.26,35.84h-8c-.74-5.71-1.12-8.57-1.86-14.29H709.17c.52,5.72.78,8.58,1.29,14.29Z" fill="#030011"/><path d="M658.56,749.18l.2-14.1h13.7c0,1.13,0,1.69,0,2.82H662l0,2.84h9.77c0,1.13,0,1.69,0,2.82h-9.83l0,5.62Z" fill="#030011"/><path d="M676.9,749.18l-1.66-1.39c-.08-4.51-.12-6.77-.21-11.28l1.57-1.43h11.31l1.66,1.43c.21,4.51.32,6.77.53,11.28l-1.57,1.39Zm9.85-2.82c-.14-3.38-.2-5.07-.34-8.46h-8.1c.08,3.39.12,5.08.21,8.46Z" fill="#030011"/><path d="M705.09,749.18l-.11-1.39-1.76-1.43L701.48,745h-4.92l.25,4.21h-3.32l-.75-14.1h12.9l1.71,1.43c.23,2.82.34,4.23.58,7L706.42,745l1.74,1.39c.09,1.13.13,1.7.23,2.82Zm-.53-7c-.13-1.7-.2-2.55-.33-4.25h-8.09l.25,4.25Z" fill="#030011"/><path d="M660.19,796.34H649.08c-1.38-1.33-2.07-2-3.43-3.33-2.3,1.34-3.45,2-5.77,3.33H621.47c-1.71-1.41-2.55-2.12-4.23-3.53l2.46-28.67c1.83-1.46,2.75-2.18,4.56-3.64h30.18c1.67,1.46,2.51,2.18,4.2,3.64-.11,8.6-.17,12.9-.28,21.5l-6,3.43C655.48,792,657,793.43,660.19,796.34Zm-25.82-14.28H645l1.55,1.48,2.94-1.48.42-14.39H628.13c-.6,8.6-.9,12.9-1.49,21.5h9l4-1.94C637.51,785.16,636.46,784.13,634.37,782.06Z" fill="#030011"/><path d="M695,796.34l-.18-3.53c-1.91-1.46-2.85-2.18-4.73-3.64s-2.82-2.11-4.67-3.53H671.91c0,4.28.07,6.42.12,10.7h-9.21L663,760.5h34.43c1.79,1.46,2.69,2.18,4.5,3.64.48,7.17.72,10.75,1.21,17.92-1.67,1.43-2.51,2.15-4.21,3.58,1.87,1.42,2.81,2.12,4.69,3.53.2,2.87.29,4.31.49,7.17Zm-.92-17.87c-.23-4.32-.34-6.48-.56-10.8H671.7c0,4.32.08,6.48.13,10.8Z" fill="#030011"/><path d="M723.51,796.34Q722,782,720.58,767.67H705.29c-.21-2.87-.32-4.3-.53-7.17h38.68l1,7.17H729.32l3.39,28.67Z" fill="#030011"/><path d="M646.48,733.87c-.24,6.47-.36,9.7-.61,16.17-8.52-3.23-12.71-4.85-21-8.08C633.67,738.72,638,737.11,646.48,733.87Z" fill="#030011"/><path d="M736.42,733.87c.91,6.47,1.36,9.7,2.27,16.17-9.1-3.23-13.58-4.85-22.41-8.08C724.47,738.72,728.5,737.11,736.42,733.87Z" fill="#030011"/><line x1="777.54" y1="653.81" x2="823.87" y2="1119.42" fill="none" stroke="#030011" stroke-linejoin="round" stroke-width="3.01"/><polygon points="407.64 171.82 1060.13 168.61 1047.86 575.37 416.76 579.95 407.64 171.82" stroke="#0e061e" stroke-miterlimit="10" stroke-width="3.51" fill="url(#linear-gradient-24)"/><polygon points="443.3 212.44 1017.53 212.44 1017.53 539.62 452.37 539.62 443.3 212.44" stroke="#0e061e" stroke-miterlimit="10" stroke-width="4.08" fill="url(#linear-gradient-25)"/><circle cx="780.29" cy="861.99" r="4.27" fill="#030011"/><circle cx="778.29" cy="834.74" r="4.27" fill="#030011"/><circle cx="429.35" cy="858.84" r="4.27" fill="#030011"/><circle cx="431.83" cy="835.68" r="4.27" fill="#030011"/><circle cx="807.66" cy="1107.93" r="4.27" fill="#030011"/><circle cx="836.66" cy="1107.93" r="4.27" fill="#030011"/><polygon points="630.64 576.66 597.93 545.62 883.95 545.62 845.5 576.66 630.64 576.66" fill="url(#linear-gradient-26)"/><path d="M867,551.62l-23.59,19H633l-20.07-19H867m34-12h-318l45.35,43H847.62l53.32-43Z" fill="#0e061e"/><polygon points="811.49 782.2 798.49 692.95 808.49 619.99 811.49 782.2" fill="#3e178c" stroke="#030011" stroke-linejoin="round" stroke-width="3"/><polygon points="998.77 780.54 986.55 620.13 808.49 619.99 812.25 782.33 998.77 780.54" fill="#7c016f" stroke="#0e061e" stroke-miterlimit="10" stroke-width="3"/><polygon points="982 763 829.44 763 826.44 641.34 973.1 641.34 982 763" fill="#fff" stroke="#030011" stroke-linejoin="round" stroke-width="3"/><polygon points="444.63 911.19 438.13 866.56 453.58 835.68 444.63 911.19" fill="#3e178c" stroke="#030011" stroke-linejoin="round" stroke-width="3"/><polygon points="761.76 912.35 769.49 866.56 754.04 835.68 761.76 912.35" fill="#ca1762" stroke="#030011" stroke-linejoin="round" stroke-width="3"/><polygon points="445.93 912.35 453.49 835.74 754.09 835.68 761.76 912.35 445.93 912.35" fill="#7c016f" stroke="#0e061e" stroke-miterlimit="10" stroke-width="2.61"/><polygon points="457.85 903.18 747.76 903.18 745.17 845.75 464.64 845.75 457.85 903.18" stroke="#0e061e" stroke-miterlimit="10" stroke-width="3.55" fill="url(#linear-gradient-27)"/><path d="M685.14,1028.15l.08,2.26-6.33.21.73,22,6.33-.21.08,2.26-15.83.52-.07-2.26,6.33-.21-.73-22-6.33.21-.08-2.26Z" fill="#fff"/><path d="M703.82,1027.53q8-.26,11.74,4.08a9.17,9.17,0,0,1,2,3.78,22.5,22.5,0,0,1,.65,4.93,21.32,21.32,0,0,1-.33,5,9.1,9.1,0,0,1-1.77,3.91q-3.48,4.58-11.45,4.85l-7,.23-.88-26.51Zm10.95,17.64a20.42,20.42,0,0,0,.32-4.74,19.48,19.48,0,0,0-.64-4.71,7.09,7.09,0,0,0-1.77-3.16q-2.92-3-8.78-2.77l-3.81.13.73,22,3.81-.12c3.9-.13,6.76-1.25,8.57-3.34A7.13,7.13,0,0,0,714.77,1045.17Z" fill="#fff"/><path d="M745.51,1043.19l.08,2.26-3.17.1.24,7.23-3.16.11-.24-7.23-6.33.21.24,7.23-3.16.11-.24-7.23-3.17.1-.07-2.26,3.16-.11-.25-7.53-3.16.11-.08-2.26,3.17-.11-.24-7.23,3.16-.1.24,7.23,6.33-.21-.24-7.23,3.16-.11.24,7.23,3.17-.1.07,2.26-3.16.1.25,7.53Zm-12.9-7.11.25,7.53,6.32-.21-.25-7.53Z" fill="#fff"/><path d="M641.79,1006.57h-3.16V981.32h3.16v12.35L656,981.32h3.44L647.36,992l14.37,14.58h-3.89l-12.59-12.93-3.46,2.92Z" fill="#fff"/><path d="M686.75,981.32v2.15h-6.34v20.94h6.34v2.16H670.92v-2.16h6.33V983.47h-6.33v-2.15Z" fill="#fff"/><path d="M719,981.32v2.15h-9.5v23.1h-3.16v-23.1h-9.5v-2.15Z" fill="#fff"/><path d="M748.16,981.32v2.15h-9.49v23.1H735.5v-23.1H726v-2.15Z" fill="#fff"/><path d="M766.46,993.28a53.74,53.74,0,0,0,8.16-12H778a76,76,0,0,1-4.66,7.73,42.83,42.83,0,0,1-5.53,6.47v11.05h-3.16V995.52a42.83,42.83,0,0,1-5.53-6.47,76,76,0,0,1-4.66-7.73h3.36a53.57,53.57,0,0,0,8.16,12Z" fill="#fff"/><path d="M640.33,938.46h19v2.11H643.5v9.14h12.66v2.11H643.5v9.29h15.83v2.11h-19Z" fill="#fff"/><path d="M672.62,963.22h-3.16V938.46h3.14L685,958.3h.25V938.46h3.16v24.76h-3.16l-12.42-19.84h-.25Z" fill="#fff"/><path d="M719.16,938.46v2.11h-9.5v22.65H706.5V940.57H697v-2.11Z" fill="#fff"/><path d="M727.71,938.46h19v2.11H730.87v9.14h12.67v2.11H730.87v9.29H746.7v2.11h-19Z" fill="#fff"/><path d="M756.83,938.46h6.85c.81,0,1.48,0,2,0s1.22.09,2.1.19a11.54,11.54,0,0,1,2.52.56,11.24,11.24,0,0,1,2.24,1.06c2.46,1.55,3.68,3.54,3.68,6s-1.22,4.41-3.68,6a10.46,10.46,0,0,1-1.93.93l6.23,10.06h-3.36l-5.86-9.34a31.73,31.73,0,0,1-3.94.19H760v9.15h-3.17Zm3.17,2.11V952h3.68c.93,0,1.68,0,2.26,0a13.54,13.54,0,0,0,2.18-.35,7.82,7.82,0,0,0,2.29-.89,5.72,5.72,0,0,0,1.93-1.89,4.79,4.79,0,0,0,0-5,5.72,5.72,0,0,0-1.93-1.89,7.7,7.7,0,0,0-1.59-.74,9.46,9.46,0,0,0-1.85-.38c-.66-.08-1.19-.12-1.6-.14l-1.69,0Z" fill="#fff"/><rect x="418.35" y="1134.24" width="407.44" height="51.19" fill="#7c016f" stroke="#0e061e" stroke-linecap="round" stroke-linejoin="round" stroke-width="2.92"/><rect x="838.35" y="1135.1" width="213.44" height="48.28" stroke="#0e061e" stroke-miterlimit="10" stroke-width="3.54" fill="url(#linear-gradient-28)"/><path d="M851,1159.31a9,9,0,0,1,.73-3.64,9.15,9.15,0,0,1,2-3,9.41,9.41,0,0,1,3-2,9.42,9.42,0,0,1,7.27,0,9.37,9.37,0,0,1,3,2,9.62,9.62,0,0,1,2,3,8.88,8.88,0,0,1,.75,3.64,9,9,0,0,1-.59,3.25,9.36,9.36,0,0,1-4.06,4.79,9.16,9.16,0,0,1-3,1.12v2.38a.68.68,0,0,1-.68.68h-2.08a.66.66,0,0,1-.48-.2.65.65,0,0,1-.19-.48v-2.38a9.16,9.16,0,0,1-3-1.12,9.35,9.35,0,0,1-2.42-2,9.56,9.56,0,0,1-1.61-2.75A9,9,0,0,1,851,1159.31Zm11.1,5.81a6.15,6.15,0,0,0,1.65-.85,6.35,6.35,0,0,0,1.31-1.33,6.18,6.18,0,0,0,.85-1.68,6.31,6.31,0,0,0,.3-2,6.07,6.07,0,0,0-.46-2.37,6,6,0,0,0-1.26-1.94,6,6,0,0,0-1.85-1.31,5.54,5.54,0,0,0-4.51,0,6.21,6.21,0,0,0-1.86,1.31,5.94,5.94,0,0,0-1.25,1.94,6.07,6.07,0,0,0-.46,2.37,6.31,6.31,0,0,0,.3,2,6,6,0,0,0,3.81,3.86v-1.94a.69.69,0,0,1,.21-.5.67.67,0,0,1,.49-.21h2a.67.67,0,0,1,.49.21.69.69,0,0,1,.21.5Z" fill="#5cfffc"/><path d="M894.28,1167.26a.72.72,0,0,1-.71.71H891.5a.72.72,0,0,1-.71-.71v-2.56a2.08,2.08,0,0,0-.51-1.42,1.57,1.57,0,0,0-1.21-.57h-8.88a.73.73,0,0,0-.65.65v3.9a.72.72,0,0,1-.71.71h-2.07a.67.67,0,0,1-.49-.21.69.69,0,0,1-.21-.5v-15.94a.69.69,0,0,1,.21-.5.67.67,0,0,1,.49-.21h10.71a5.19,5.19,0,0,1,2,.41,5.4,5.4,0,0,1,1.66,1.1,5.06,5.06,0,0,1,1.11,1.64,4.94,4.94,0,0,1,.41,2v1.81a5.21,5.21,0,0,1-.22,1.49,4.86,4.86,0,0,1-.65,1.31,5.26,5.26,0,0,1,1.78,1.82,4.78,4.78,0,0,1,.69,2.53Zm-5.08-11.52a2.13,2.13,0,0,0-.5-1.43,1.54,1.54,0,0,0-1.23-.58h-7.93v5.18a.65.65,0,0,0,.19.48.66.66,0,0,0,.49.2h7.25a1.54,1.54,0,0,0,1.23-.58,2.12,2.12,0,0,0,.5-1.42Z" fill="#5cfffc"/><path d="M917.89,1156.24a.69.69,0,0,1-.5.21h-1.83a.72.72,0,0,1-.71-.71v-1.33a.66.66,0,0,0-.2-.48.62.62,0,0,0-.48-.2h-2.7a.68.68,0,0,0-.68.68v9.74a.7.7,0,0,0,.2.49.63.63,0,0,0,.48.21h2.1a.68.68,0,0,1,.68.68v1.73a.72.72,0,0,1-.2.5.63.63,0,0,1-.48.21h-9a.64.64,0,0,1-.49-.21.71.71,0,0,1-.19-.5v-1.73a.65.65,0,0,1,.19-.48.66.66,0,0,1,.49-.2h2.09a.63.63,0,0,0,.48-.21.66.66,0,0,0,.2-.49v-9.74a.62.62,0,0,0-.2-.48.66.66,0,0,0-.48-.2H904a.68.68,0,0,0-.5.2.63.63,0,0,0-.21.48v1.33a.69.69,0,0,1-.19.5.65.65,0,0,1-.49.21h-1.83a.69.69,0,0,1-.5-.21.67.67,0,0,1-.21-.5v-4.43a.67.67,0,0,1,.21-.49.69.69,0,0,1,.5-.21h16.65a.69.69,0,0,1,.5.21.67.67,0,0,1,.21.49v4.43A.67.67,0,0,1,917.89,1156.24Z" fill="#5cfffc"/><path d="M936.05,1160.17a.63.63,0,0,1-.21.48.7.7,0,0,1-.49.2h-3.9a.7.7,0,0,1-.5-.2.63.63,0,0,1-.21-.48v-1.73a.69.69,0,0,1,.21-.5.67.67,0,0,1,.5-.21h3.9a.67.67,0,0,1,.49.21.69.69,0,0,1,.21.5Zm0,7.09a.65.65,0,0,1-.21.49.69.69,0,0,1-.49.19h-3.9a.69.69,0,0,1-.5-.19.65.65,0,0,1-.21-.49v-1.75a.67.67,0,0,1,.21-.49.69.69,0,0,1,.5-.19h3.9a.69.69,0,0,1,.49.19.67.67,0,0,1,.21.49Z" fill="#5cfffc"/><rect x="433.35" y="1148.05" width="377.44" height="23.57" stroke="#030011" stroke-miterlimit="10" stroke-width="3.51" fill="url(#linear-gradient-29)"/><polygon points="830.48 866.22 822.03 814.05 831.24 787.8 830.48 866.22" fill="#3e178c" stroke="#030011" stroke-linejoin="round" stroke-width="3"/><polygon points="1017.77 864.55 1011.66 787.94 831.24 787.8 831.24 866.35 1017.77 864.55" fill="#7c016f" stroke="#0e061e" stroke-miterlimit="10" stroke-width="3"/><polygon points="1004.91 852.65 844.56 852.65 843.59 798.31 1003.05 798.31 1004.91 852.65" stroke="#0e061e" stroke-miterlimit="10" stroke-width="4.08" fill="url(#linear-gradient-30)"/><path d="M865.6,823.63a.37.37,0,0,1-.11.28.41.41,0,0,1-.28.11h-1.47a.36.36,0,0,1-.33-.2l-2.08-3.54a.34.34,0,0,0-.32-.19h-3.6a.34.34,0,0,0-.26.12.35.35,0,0,0-.11.27v3.15a.38.38,0,0,1-.12.28.39.39,0,0,1-.27.11h-1.14a.38.38,0,0,1-.39-.39v-8.8a.4.4,0,0,1,.11-.27.38.38,0,0,1,.28-.12h1.14a.36.36,0,0,1,.27.12.37.37,0,0,1,.12.27V818a.36.36,0,0,0,.11.27.35.35,0,0,0,.26.1h3.33a.35.35,0,0,0,.19-.06.24.24,0,0,0,.12-.14l1.46-3.49a.35.35,0,0,1,.36-.24h1.27a.34.34,0,0,1,.27.12.4.4,0,0,1,.11.27.39.39,0,0,1,0,.18l-1.61,3.72a.36.36,0,0,0,0,.32l2.6,4.34A.36.36,0,0,1,865.6,823.63Z" fill="#5cfffc"/><path d="M878,823.91a.41.41,0,0,1-.28.11h-8.79a.41.41,0,0,1-.28-.11.37.37,0,0,1-.11-.28v-1a.33.33,0,0,1,.11-.27.41.41,0,0,1,.28-.11H872a.36.36,0,0,0,.37-.39v-5.37a.36.36,0,0,0-.1-.27.4.4,0,0,0-.27-.11h-3.06a.41.41,0,0,1-.28-.11.36.36,0,0,1-.11-.27v-.95a.36.36,0,0,1,.11-.27.38.38,0,0,1,.28-.12h8.79a.38.38,0,0,1,.28.12.4.4,0,0,1,.11.27v.95a.4.4,0,0,1-.11.27.41.41,0,0,1-.28.11h-3.06a.39.39,0,0,0-.27.11.37.37,0,0,0-.11.27v5.37a.41.41,0,0,0,.11.28.39.39,0,0,0,.27.11h3.06a.41.41,0,0,1,.28.11.37.37,0,0,1,.11.27v1A.41.41,0,0,1,878,823.91Z" fill="#5cfffc"/><path d="M891.63,817.55a.36.36,0,0,1-.27.12h-1a.38.38,0,0,1-.28-.12.41.41,0,0,1-.11-.28v-.73a.38.38,0,0,0-.38-.38h-1.49a.36.36,0,0,0-.26.11.33.33,0,0,0-.11.27v5.37a.37.37,0,0,0,.11.28.36.36,0,0,0,.26.11h1.16a.39.39,0,0,1,.27.11.36.36,0,0,1,.1.27v1a.4.4,0,0,1-.1.28.39.39,0,0,1-.27.11h-5a.37.37,0,0,1-.27-.11.41.41,0,0,1-.11-.28v-1a.38.38,0,0,1,.38-.38h1.15a.37.37,0,0,0,.27-.11.41.41,0,0,0,.11-.28v-5.37a.38.38,0,0,0-.38-.38H884a.41.41,0,0,0-.28.11.37.37,0,0,0-.11.27v.73a.41.41,0,0,1-.11.28.34.34,0,0,1-.27.12h-1a.36.36,0,0,1-.27-.12.38.38,0,0,1-.12-.28v-2.44a.37.37,0,0,1,.12-.27.36.36,0,0,1,.27-.12h9.19a.36.36,0,0,1,.27.12.37.37,0,0,1,.12.27v2.44A.38.38,0,0,1,891.63,817.55Z" fill="#5cfffc"/><path d="M905.07,817.55a.38.38,0,0,1-.28.12h-1a.34.34,0,0,1-.27-.12.38.38,0,0,1-.12-.28v-.73a.37.37,0,0,0-.11-.27.36.36,0,0,0-.26-.11h-1.49a.38.38,0,0,0-.38.38v5.37a.41.41,0,0,0,.11.28.37.37,0,0,0,.27.11h1.15a.38.38,0,0,1,.38.38v1a.41.41,0,0,1-.11.28.37.37,0,0,1-.27.11h-5a.37.37,0,0,1-.27-.11.41.41,0,0,1-.11-.28v-1a.38.38,0,0,1,.38-.38h1.16a.36.36,0,0,0,.26-.11.41.41,0,0,0,.11-.28v-5.37a.37.37,0,0,0-.11-.27.36.36,0,0,0-.26-.11h-1.48a.39.39,0,0,0-.27.11.34.34,0,0,0-.12.27v.73a.37.37,0,0,1-.11.28.34.34,0,0,1-.26.12h-1a.41.41,0,0,1-.4-.4v-2.44a.37.37,0,0,1,.12-.27.38.38,0,0,1,.28-.12h9.18a.38.38,0,0,1,.28.12.4.4,0,0,1,.11.27v2.44A.41.41,0,0,1,905.07,817.55Z" fill="#5cfffc"/><path d="M918.15,818a5,5,0,0,1-.75,1.41,4.68,4.68,0,0,1-1.13,1.09,4.55,4.55,0,0,1-1.41.66.35.35,0,0,0-.28.36v2.11a.37.37,0,0,1-.11.28.41.41,0,0,1-.28.11h-1.14a.4.4,0,0,1-.27-.11.38.38,0,0,1-.12-.28v-2.11a.34.34,0,0,0-.27-.36,4.71,4.71,0,0,1-1.42-.66,4.64,4.64,0,0,1-1.12-1.09,5,5,0,0,1-.75-1.41,4.89,4.89,0,0,1-.26-1.63v-1.54a.36.36,0,0,1,.11-.27.38.38,0,0,1,.28-.12h1.14a.41.41,0,0,1,.39.39v1.52a3.39,3.39,0,0,0,.22,1.23,3.32,3.32,0,0,0,.61,1,3,3,0,0,0,.91.68,2.65,2.65,0,0,0,1.12.24,2.72,2.72,0,0,0,1.12-.24,2.9,2.9,0,0,0,.91-.68,3.23,3.23,0,0,0,.84-2.22v-1.54a.37.37,0,0,1,.12-.27.36.36,0,0,1,.27-.12H918a.38.38,0,0,1,.28.12.4.4,0,0,1,.11.27v1.54A5.15,5.15,0,0,1,918.15,818Z" fill="#5cfffc"/><path d="M864.06,838.88a.38.38,0,0,1-.28.12h-4.37a4.66,4.66,0,0,1-1.87-.38,4.91,4.91,0,0,1-1.51-1,4.81,4.81,0,0,1-1-1.52,4.89,4.89,0,0,1,0-3.73,4.74,4.74,0,0,1,1-1.53,4.91,4.91,0,0,1,1.51-1,4.66,4.66,0,0,1,1.87-.38h4.37a.38.38,0,0,1,.28.12.37.37,0,0,1,.11.27v2a.4.4,0,0,1-.11.27.38.38,0,0,1-.28.12h-1a.36.36,0,0,1-.27-.12.37.37,0,0,1-.12-.27v-.26a.33.33,0,0,0-.11-.27.36.36,0,0,0-.26-.11H859.4a2.65,2.65,0,0,0-1.12.24,2.77,2.77,0,0,0-.92.66,3.09,3.09,0,0,0-.62,1,3.15,3.15,0,0,0-.22,1.19,3.13,3.13,0,0,0,.84,2.17,2.77,2.77,0,0,0,.92.66,2.65,2.65,0,0,0,1.12.24H862a.39.39,0,0,0,.37-.39v-.26a.36.36,0,0,1,.12-.27.39.39,0,0,1,.27-.11h1a.41.41,0,0,1,.28.11.39.39,0,0,1,.11.27v2A.39.39,0,0,1,864.06,838.88Z" fill="#5cfffc"/><path d="M868.15,834.22a5,5,0,0,1,.4-2,5.17,5.17,0,0,1,1.11-1.64,5.2,5.2,0,0,1,5.69-1.1,4.88,4.88,0,0,1,1.64,1.1,5.37,5.37,0,0,1,1.12,1.64,5.13,5.13,0,0,1,0,4,5.44,5.44,0,0,1-1.12,1.63,5.19,5.19,0,0,1-1.64,1.1,5.28,5.28,0,0,1-4,0,5.4,5.4,0,0,1-1.66-1.1,5.24,5.24,0,0,1-1.11-1.63A5,5,0,0,1,868.15,834.22Zm2,0a3.31,3.31,0,0,0,.25,1.3,3.26,3.26,0,0,0,.7,1.07,3.05,3.05,0,0,0,1,.72,3.13,3.13,0,0,0,2.5,0,3.2,3.2,0,0,0,1-.72,3.4,3.4,0,0,0,.69-1.07,3.31,3.31,0,0,0,.25-1.3,3.41,3.41,0,0,0-.94-2.38,3.54,3.54,0,0,0-1-.72,3,3,0,0,0-2.5,0,3.37,3.37,0,0,0-1,.72,3.26,3.26,0,0,0-.7,1.07A3.39,3.39,0,0,0,870.11,834.22Z" fill="#5cfffc"/><path d="M891.17,836.17a5,5,0,0,1-1,1.58,4.78,4.78,0,0,1-1.52,1.06,4.54,4.54,0,0,1-1.87.39,4.46,4.46,0,0,1-1.86-.39,4.78,4.78,0,0,1-1.52-1.06,5.14,5.14,0,0,1-1-1.58,5,5,0,0,1-.37-1.94v-4.42a.39.39,0,0,1,.11-.27.38.38,0,0,1,.28-.12h1.14a.34.34,0,0,1,.27.12.36.36,0,0,1,.12.27v4.42a3.27,3.27,0,0,0,.22,1.22,3.35,3.35,0,0,0,.62,1,2.9,2.9,0,0,0,.91.68,2.61,2.61,0,0,0,1.11.24,2.65,2.65,0,0,0,1.12-.24,2.94,2.94,0,0,0,.92-.68,3.32,3.32,0,0,0,.61-1,3.27,3.27,0,0,0,.22-1.22v-4.42a.22.22,0,0,1,.06-.14l.13-.13.2-.12h1.15a.37.37,0,0,1,.27.12.36.36,0,0,1,.12.27v4.42A5,5,0,0,1,891.17,836.17Z" fill="#5cfffc"/><path d="M904.86,838.88a.34.34,0,0,1-.27.12H903.3a.32.32,0,0,1-.27-.13l-5.72-6.59v6.33a.39.39,0,0,1-.11.27.34.34,0,0,1-.26.12h-1.15a.36.36,0,0,1-.27-.12.38.38,0,0,1-.1-.27v-8.8a.38.38,0,0,1,.1-.27.36.36,0,0,1,.27-.12h1.42a.41.41,0,0,1,.3.15l5.56,6.44v-6.2a.39.39,0,0,1,.11-.27.34.34,0,0,1,.27-.12h1.14a.34.34,0,0,1,.27.12.38.38,0,0,1,.1.27v8.8A.38.38,0,0,1,904.86,838.88Z" fill="#5cfffc"/><path d="M918.5,832.53a.41.41,0,0,1-.28.11h-1a.4.4,0,0,1-.27-.11.38.38,0,0,1-.12-.28v-.73a.36.36,0,0,0-.1-.27.4.4,0,0,0-.27-.11H915a.39.39,0,0,0-.27.11.37.37,0,0,0-.11.27v5.37a.39.39,0,0,0,.11.27.36.36,0,0,0,.27.12h1.16a.36.36,0,0,1,.26.11.33.33,0,0,1,.11.26v1a.35.35,0,0,1-.11.27.34.34,0,0,1-.26.12h-5a.34.34,0,0,1-.26-.12.35.35,0,0,1-.11-.27v-1a.33.33,0,0,1,.11-.26.36.36,0,0,1,.26-.11h1.16a.37.37,0,0,0,.27-.12.38.38,0,0,0,.1-.27v-5.37a.36.36,0,0,0-.1-.27.4.4,0,0,0-.27-.11h-1.48a.4.4,0,0,0-.27.11.34.34,0,0,0-.12.27v.73a.36.36,0,0,1-.37.39h-1a.38.38,0,0,1-.39-.39v-2.44a.37.37,0,0,1,.11-.27.38.38,0,0,1,.28-.12h9.18a.38.38,0,0,1,.28.12.33.33,0,0,1,.11.27v2.44A.37.37,0,0,1,918.5,832.53Z" fill="#5cfffc"/></g><g id="QRT_ON" data-name="QRT ON"><polygon points="535.82 706.11 500.68 749.61 522.45 794.97 560.88 749.41 535.82 706.11" fill="#5cfffc" stroke="#030011" stroke-linejoin="round" stroke-width="3.26"/></g><g id="QRT_OFF" data-name="QRT OFF"><polygon points="539.42 704.09 500.68 740.57 500.68 749.61 522.45 794.97 561 749.53 561.16 741.36 539.42 704.09" fill="#b72a46" stroke="#030011" stroke-linejoin="round" stroke-width="2.91"/><polygon points="536.4 698.78 500.68 740.57 523.6 783.95 561.16 741.36 536.4 698.78" fill="#ff5767" stroke="#030011" stroke-linejoin="round" stroke-width="2.91"/></g><g id="release-on"><polygon points="836.7 875.5 850.48 966.59 1053.44 969.85 1025.5 874.5 836.7 875.5" fill="#496cb5" stroke="#0e061e" stroke-miterlimit="10" stroke-width="3.26"/><ellipse cx="943.09" cy="920.72" rx="75.68" ry="31.88" fill="#7d016f" stroke="#0e061e" stroke-linecap="round" stroke-linejoin="round" stroke-width="4.16"/><polygon points="1053.44 1009.39 850.48 1009.39 850.48 965.59 1053.44 967.49 1053.44 1009.39" fill="#5cfffc" stroke="#030011" stroke-linejoin="round" stroke-width="3.26"/><polygon points="859.45 1008.44 850.48 1008.94 850.48 966.68 898.63 966.68 859.45 1008.44" fill="#030011"/><polygon points="938.81 1009.8 900.54 1009.8 935.36 966.68 973.27 966.68 938.81 1009.8" fill="#030011"/><polygon points="1012.54 1009.8 970.37 1009.8 1005.92 966.68 1048.31 966.68 1012.54 1009.8" fill="#030011"/><polygon points="836.7 874.5 836.7 911.21 849.27 1009.42 850.48 965.59 836.7 874.5" fill="#3e178c" stroke="#030011" stroke-linejoin="round" stroke-width="3"/><path d="M1000,919.36a7.66,7.66,0,0,0,.19-1.65,7.57,7.57,0,0,0-.19-1.64L997,903.36l-18.71-2.26a127.56,127.56,0,0,0-34.38-4.35c-13.64,0-26.15,1.8-35.9,4.8l-19.39,1.2-1.06,16.61h.19c2.26,10.81,26.53,19.32,56.16,19.32s53.9-8.51,56.16-19.32Z" fill="#5cfffc" stroke="#030011" stroke-linejoin="round" stroke-width="2.91"/></g><g id="release-off"><path d="M1000,919.59a7.57,7.57,0,0,0,.19-1.64c0-.56-.19-15.79-.19-15.79l-9.56,4c-10.14-5.54-27.23-9.17-46.6-9.17s-36.45,3.63-46.6,9.17l-9.75-4,.19,17.43c2.26,10.81,26.53,19.32,56.16,19.32s53.9-8.51,56.16-19.32Z" fill="#b72a46" stroke="#030011" stroke-linejoin="round" stroke-width="2.91"/><path d="M1000,905.09a7.57,7.57,0,0,0,.19-1.64,7.66,7.66,0,0,0-.19-1.65L997,883.1l-18.71,3.74a127.56,127.56,0,0,0-34.38-4.35c-13.64,0-26.15,1.8-35.9,4.8l-19.39-4.8-1.06,22.6h.19c2.26,10.81,26.53,19.32,56.16,19.32s53.9-8.51,56.16-19.32Z" fill="#ff5767" stroke="#030011" stroke-linejoin="round" stroke-width="2.91"/></g><g id="numpad-on"><polygon points="508.98 928.42 471.07 928.42 463.78 955.88 503.54 955.88 508.98 928.42" fill="#5cfffc" stroke="#030011" stroke-linejoin="round" stroke-width="2.3"/><path d="M482.7,951.24l4-15.41H483l1-3.85h7.4l-5,19.26Z" fill="#030011"/><polygon points="551.14 955.88 554.73 928.42 517.23 928.42 511.79 955.88 551.14 955.88" fill="#5cfffc" stroke="#030011" stroke-linejoin="round" stroke-width="2.3"/><path d="M530.7,935.83l-.5,1.93h-3.71l1-3.83,2.33-1.95h13l1.32,1.95-1.49,5.78-12.33,7.68h10.35l-1,3.85H523l1-3.85,15.45-9.61.5-1.95Z" fill="#030011"/><polygon points="598.73 955.88 600.47 928.42 562.89 928.42 559.3 955.88 598.73 955.88" fill="#5cfffc" stroke="#030011" stroke-linejoin="round" stroke-width="2.3"/><path d="M572,951.24l-1.34-1.9,1-3.85h3.71l-.49,1.9h9.25l1-3.83h-7.42l1-3.85,8.43-3.88h-9.26l-.5,1.93h-3.71l1.49-5.78h16.66l-1.42,5.47-5.24,2.23H588l1.33,1.93-2,7.73-2.32,1.9Z" fill="#030011"/><polygon points="501.69 965.87 461.7 965.87 454.01 994.85 495.95 994.85 501.69 965.87" fill="#5cfffc" stroke="#030011" stroke-linejoin="round" stroke-width="2.3"/><path d="M480.76,970.12h3.71l-3,11.59h1.83l-1,3.82h-1.83l-1,3.86h-3.72l1-3.86H465.67l1-3.82Zm-1.28,4.93-8.18,6.66h6.47Z" fill="#030011"/><polygon points="546.18 994.85 549.97 965.87 510.4 965.87 504.66 994.85 546.18 994.85" fill="#5cfffc" stroke="#030011" stroke-linejoin="round" stroke-width="2.3"/><path d="M518.93,989.39l-1.34-1.9,1-3.86h3.71l-.49,1.9h9.26l1.23-4.76h-13l2.75-10.65h15.86l-1,3.85H524.79l-.75,2.92h11.11l1.34,1.9-2.25,8.7-2.32,1.9Z" fill="#030011"/><polygon points="596.39 994.85 598.23 965.87 558.58 965.87 554.79 994.85 596.39 994.85" fill="#5cfffc" stroke="#030011" stroke-linejoin="round" stroke-width="2.3"/><path d="M583.35,987.49l-2.32,1.9H568l-1.34-1.9,4-15.42,2.34-2h13l1.33,2-1,3.83h-3.69l.5-1.93h-9.26l-1,3.88H584l1.34,1.93Zm-11.45-5.78-1,3.82h9.26l1-3.82Z" fill="#030011"/><polygon points="494.2 1006.12 451.66 1006.12 443.86 1035.5 488.38 1035.5 494.2 1006.12" fill="#5cfffc" stroke="#030011" stroke-linejoin="round" stroke-width="2.3"/><path d="M461.09,1030.32l12.55-15.41H461.36l1-3.86H479l-1,3.86-12.44,15.41Z" fill="#030011"/><polygon points="502.91 1006.12 497.09 1035.5 541.18 1035.5 545.02 1006.12 502.91 1006.12" fill="#5cfffc" stroke="#030011" stroke-linejoin="round" stroke-width="2.3"/><path d="M512.71,1030.32l-1.34-1.9,1.49-5.78,2.32-1.93-1.33-1.92,1.49-5.78,2.34-2h13l1.33,2-1.49,5.78-2.33,1.92,1.33,1.93-1.49,5.78-2.32,1.9Zm12.13-3.85,1-3.83h-9.26l-1,3.83Zm2-7.68,1-3.88h-9.25l-1,3.88Z" fill="#030011"/><polygon points="553.63 1006.12 549.79 1035.5 593.97 1035.5 595.83 1006.12 553.63 1006.12" fill="#5cfffc" stroke="#030011" stroke-linejoin="round" stroke-width="2.3"/><path d="M567,1013l2.34-2h13l1.33,2-4,15.41-2.32,1.9h-13l-1.34-1.9,1-3.85h3.71l-.49,1.9h9.26l1-3.83H566.37l-1.33-1.93Zm11.48,5.78,1-3.88h-9.25l-1,3.88Z" fill="#030011"/><polygon points="548.63 1045.97 543.79 1082.99 591.06 1082.99 593.4 1045.97 548.63 1045.97" fill="#999" stroke="#030011" stroke-linejoin="round" stroke-width="2.3"/><path d="M576.42,1054.65l-3.22,16.25H559.4l.65-3.25h10.54l2.58-13Z" fill="#030011"/><polygon points="561.97 1066 560.47 1072.76 556.79 1068.89 561.97 1066" fill="#030011"/><polygon points="495.33 1045.97 488 1082.99 535.18 1082.99 540.02 1045.97 495.33 1045.97" fill="#5cfffc" stroke="#030011" stroke-linejoin="round" stroke-width="2.3"/><path d="M505.29,1073.87,504,1072l4-15.41,2.33-2h13l1.32,2-4,15.41-2.32,1.9ZM518,1058.46h-6.87l-2.34,9Zm1.72,2.58-9.05,9h6.73Z" fill="#030011"/><polygon points="441.51 1045.97 431.68 1082.99 479.29 1082.99 486.62 1045.97 441.51 1045.97" fill="#ff5767" stroke="#030011" stroke-linejoin="round" stroke-width="2.3"/><path d="M451.32,1071.48l1.09-4.23,3.47-2.84-2-2.83,1.1-4.28h2.73l-.74,2.86,2,2.84h1.37l3.46-2.84.74-2.86h2.71l-1.1,4.28-3.44,2.83,2,2.84-1.1,4.23h-2.71l.73-2.83-2-2.82h-1.37l-3.44,2.82-.73,2.83Z" fill="#030011"/></g><g id="numpad-off"><polygon points="593.4 1039.14 591.62 1074.27 591.62 1082.99 593.4 1045.97 593.4 1039.14" fill="#999" stroke="#030011" stroke-linejoin="round" stroke-width="2.3"/><polygon points="547.95 1039.14 543.11 1074.27 590.37 1074.27 592.72 1039.14 547.95 1039.14" fill="#999" stroke="#030011" stroke-linejoin="round" stroke-width="2.3"/><path d="M576.42,1047.65l-3.22,16.25H559.4l.65-3.25h10.54l2.58-13Z" fill="#030011"/><polygon points="561.97 1059 560.47 1065.76 556.79 1061.89 561.97 1059" fill="#030011"/><rect x="543.79" y="1074.27" width="47.57" height="8.72" fill="#686868" stroke="#030011" stroke-linejoin="round" stroke-width="2.3"/><polygon points="501.92 967.02 501.69 959.97 495.95 988.94 495.95 994.85 501.92 967.02" fill="#5cfffc" stroke="#030011" stroke-linejoin="round" stroke-width="2.3"/><rect x="454.01" y="988.94" width="41.94" height="5.91" fill="#55b7b2" stroke="#030011" stroke-linejoin="round" stroke-width="2.3"/><polygon points="501.69 959.97 461.7 959.97 454.01 988.94 495.95 988.94 501.69 959.97" fill="#5cfffc" stroke="#030011" stroke-linejoin="round" stroke-width="2.3"/><path d="M480.76,964.12h3.71l-3,11.59h1.83l-1,3.82h-1.83l-1,3.86h-3.72l1-3.86H465.67l1-3.82Zm-1.28,4.93-8.18,6.66h6.47Z" fill="#030011"/><polygon points="494.2 1006.12 494.2 998.85 488.08 1028.23 488.08 1035.5 494.2 1006.12" fill="#5cfffc" stroke="#030011" stroke-linejoin="round" stroke-width="2.3"/><rect x="443.86" y="1028.23" width="44.22" height="7.27" fill="#55b7b2" stroke="#030011" stroke-linejoin="round" stroke-width="2.3"/><polygon points="494.2 998.85 451.66 998.85 443.86 1028.23 488.08 1028.23 494.2 998.85" fill="#5cfffc" stroke="#030011" stroke-linejoin="round" stroke-width="2.3"/><path d="M461.09,1023.32l12.55-15.41H461.36l1-3.86H479l-1,3.86-12.44,15.41Z" fill="#030011"/><polygon points="502.91 998.85 497.09 1028.23 541.18 1028.23 545.02 998.85 502.91 998.85" fill="#5cfffc" stroke="#030011" stroke-linejoin="round" stroke-width="2.3"/><rect x="497.09" y="1028.23" width="44.22" height="7.27" fill="#55b7b2" stroke="#030011" stroke-linejoin="round" stroke-width="2.3"/><polygon points="545.02 998.85 541.31 1028.23 541.31 1035.5 545.02 1006.12 545.02 998.85" fill="#999" stroke="#030011" stroke-linejoin="round" stroke-width="2.3"/><path d="M512.71,1023.32l-1.34-1.9,1.49-5.78,2.32-1.93-1.33-1.92,1.49-5.78,2.34-2h13l1.33,2-1.49,5.78-2.33,1.92,1.33,1.93-1.49,5.78-2.32,1.9Zm12.13-3.85,1-3.83h-9.26l-1,3.83Zm2-7.68,1-3.88h-9.25l-1,3.88Z" fill="#030011"/><polygon points="553.63 998.85 549.79 1028.23 593.97 1028.23 595.83 998.85 553.63 998.85" fill="#5cfffc" stroke="#030011" stroke-linejoin="round" stroke-width="2.3"/><polygon points="595.8 998.85 593.97 1028.23 594.01 1035.5 595.8 1005.68 595.8 998.85" fill="#999" stroke="#030011" stroke-linejoin="round" stroke-width="2.3"/><rect x="549.79" y="1028.23" width="44.22" height="7.27" fill="#55b7b2" stroke="#030011" stroke-linejoin="round" stroke-width="2.3"/><path d="M567,1006l2.34-2h13l1.33,2-4,15.41-2.32,1.9h-13l-1.34-1.9,1-3.85h3.71l-.49,1.9h9.26l1-3.83H566.37l-1.33-1.93Zm11.48,5.78,1-3.88h-9.25l-1,3.88Z" fill="#030011"/><polygon points="540.02 1039.14 535.57 1074.27 535.57 1082.99 540.38 1045.97 540.02 1039.14" fill="#999" stroke="#030011" stroke-linejoin="round" stroke-width="2.3"/><polygon points="495.33 1039.14 488 1074.27 535.18 1074.27 540.02 1039.14 495.33 1039.14" fill="#5cfffc" stroke="#030011" stroke-linejoin="round" stroke-width="2.3"/><rect x="488" y="1074.27" width="47.57" height="8.72" fill="#55b7b2" stroke="#030011" stroke-linejoin="round" stroke-width="2.3"/><path d="M505.29,1066.87,504,1065l4-15.41,2.33-2h13l1.32,2-4,15.41-2.32,1.9ZM518,1051.45h-6.87l-2.34,9.06Zm1.72,2.59-9.05,9h6.73Z" fill="#030011"/><polygon points="486.92 1045.97 486.92 1039.14 479.25 1075.54 479.25 1082.8 486.92 1045.97" fill="#5cfffc" stroke="#030011" stroke-linejoin="round" stroke-width="2.3"/><polygon points="441.51 1039.14 431.68 1074.27 479.29 1074.27 486.62 1039.14 441.51 1039.14" fill="#ff5767" stroke="#030011" stroke-linejoin="round" stroke-width="2.73"/><rect x="431.68" y="1074.27" width="47.57" height="8.72" fill="#b72a46" stroke="#030011" stroke-linejoin="round" stroke-width="2.73"/><path d="M451.32,1064.48l1.09-4.23,3.47-2.84-2-2.83,1.1-4.28h2.73l-.74,2.86,2,2.84h1.37l3.46-2.84.74-2.86h2.71l-1.1,4.28-3.44,2.83,2,2.84-1.1,4.23h-2.71l.73-2.83-2-2.82h-1.37l-3.44,2.82-.73,2.83Z" fill="#030011"/><polygon points="509.19 929.5 508.98 922.82 503.54 950.28 503.54 955.88 509.19 929.5" fill="#5cfffc" stroke="#030011" stroke-linejoin="round" stroke-width="2.18"/><rect x="463.78" y="950.28" width="39.76" height="5.6" fill="#55b7b2" stroke="#030011" stroke-linejoin="round" stroke-width="2.3"/><polygon points="508.98 922.82 471.07 922.82 463.78 950.28 503.54 950.28 508.98 922.82" fill="#5cfffc" stroke="#030011" stroke-linejoin="round" stroke-width="2.3"/><path d="M482.7,946.24l4-15.41H483l1-3.85h7.4l-5,19.26Z" fill="#030011"/><rect x="504.66" y="988.94" width="41.52" height="5.91" fill="#55b7b2" stroke="#030011" stroke-linejoin="round" stroke-width="2.3"/><polygon points="546.18 988.94 549.97 959.97 510.4 959.97 504.66 988.94 546.18 988.94" fill="#5cfffc" stroke="#030011" stroke-linejoin="round" stroke-width="2.3"/><polygon points="549.97 959.97 546.09 988.04 546.09 994.79 549.8 966.62 549.97 959.97" fill="#55b7b2" stroke="#030011" stroke-linejoin="round" stroke-width="2.26"/><path d="M518.93,983.39l-1.34-1.9,1-3.86h3.71l-.49,1.9h9.26l1.23-4.76h-13l2.75-10.65h15.86l-1,3.85H524.79l-.75,2.92h11.11l1.34,1.9-2.25,8.7-2.32,1.9Z" fill="#030011"/><polygon points="555.02 922.82 551.14 949.13 551.14 955.88 554.85 929.47 555.02 922.82" fill="#55b7b2" stroke="#030011" stroke-linejoin="round" stroke-width="2.26"/><rect x="511.79" y="950.28" width="39.35" height="5.6" fill="#55b7b2" stroke="#030011" stroke-linejoin="round" stroke-width="2.3"/><polygon points="551.14 950.28 554.73 922.82 517.23 922.82 511.79 950.28 551.14 950.28" fill="#5cfffc" stroke="#030011" stroke-linejoin="round" stroke-width="2.3"/><path d="M530.7,930.83l-.5,1.93h-3.71l1-3.83,2.33-1.95h13l1.32,1.95-1.49,5.78-12.33,7.68h10.35l-1,3.85H523l1-3.85,15.45-9.61.5-1.95Z" fill="#030011"/><rect x="559.3" y="950.28" width="39.35" height="5.6" fill="#55b7b2" stroke="#030011" stroke-linejoin="round" stroke-width="2.3"/><polygon points="598.73 950.28 600.47 922.82 562.89 922.82 559.3 950.28 598.73 950.28" fill="#5cfffc" stroke="#030011" stroke-linejoin="round" stroke-width="2.3"/><path d="M572,946.24l-1.34-1.9,1-3.85h3.71l-.49,1.9h9.25l1-3.83h-7.42l1-3.85,8.43-3.88h-9.26l-.5,1.93h-3.71l1.49-5.78h16.66l-1.42,5.47-5.24,2.23H588l1.33,1.93-2,7.73-2.32,1.9Z" fill="#030011"/><rect x="554.79" y="988.94" width="41.52" height="5.91" fill="#55b7b2" stroke="#030011" stroke-linejoin="round" stroke-width="2.3"/><polygon points="596.39 988.94 598.23 959.97 558.58 959.97 554.79 988.94 596.39 988.94" fill="#5cfffc" stroke="#030011" stroke-linejoin="round" stroke-width="2.3"/><path d="M583.35,981.49l-2.32,1.9H568l-1.34-1.9,4-15.42,2.34-2h13l1.33,2-1,3.83h-3.69l.5-1.93h-9.26l-1,3.88H584l1.34,1.93Zm-11.45-5.78-1,3.82h9.26l1-3.82Z" fill="#030011"/></g><g id="dynamic_screens" data-name="dynamic screens"><g id="CK_ID" data-name="CK ID"><text transform="translate(481.71 884.97)" font-size="33.84" fill="#5cfffc" font-family="Moby-Monospace, Moby"></text></g><text transform="translate(942.87 1167.97)" font-size="26.18" fill="#5cfffc" font-family="Moby-Monospace, Moby"></text><rect x="807.14" y="477.98" width="11" height="20.02" fill="#63ff5f"/><g id="screen"><text transform="translate(494.28 409.78)" font-size="21.53" fill="#63ff5f" font-family="OCRAExtended, OCR A Extended" letter-spacing="0.02em"></text><text transform="translate(494.28 261.17)" font-size="21.53" fill="#63ff5f" font-family="OCRAExtended, OCR A Extended" letter-spacing="0.02em"><tspan x="0" y="29.46"></tspan><tspan x="0" y="58.92"></tspan><tspan x="0" y="88.37"></tspan></text><text transform="translate(494.28 438.29)" font-size="21.53" fill="#63ff5f" font-family="OCRAExtended, OCR A Extended" letter-spacing="0.02em"><tspan x="0" y="29.46"></tspan><tspan x="0" y="58.92"></tspan></text></g><text transform="translate(926.51 837.93)" font-size="36.83" fill="#5cfffc" font-family="Moby-Monospace, Moby"></text></g><g id="coin_mask" data-name="coin mask"><g clip-path="url(#clip-path)"><path d="M798.25,1078.7c0,45.44-78.07,82.27-174.38,82.27s-174.39-36.83-174.39-82.27c0-7.66,0-16.66,0-16.66s94.3-65.61,174.38-65.61c82.78,0,174,63.71,174,63.71S798.25,1072.32,798.25,1078.7Z" fill="#686868" stroke="#030011" stroke-linejoin="round" stroke-width="3.26"/><ellipse cx="623.87" cy="1062.95" rx="174.39" ry="82.27" fill="#d6d6d6" stroke="#0e061e" stroke-linecap="round" stroke-linejoin="round" stroke-width="3.15"/><ellipse cx="623.87" cy="1061.29" rx="151.93" ry="68.03" fill="#999" stroke="#0e061e" stroke-linecap="round" stroke-linejoin="round" stroke-width="3.15"/><ellipse cx="623.87" cy="1063.99" rx="151.93" ry="65.34" fill="#999" stroke="#0e061e" stroke-linecap="round" stroke-linejoin="round" stroke-width="3.15"/><path d="M514.12,1077.83v-36.68h53.23v7.34H526.67v7.38h37.55v7.34H526.67v7.28h40.68v7.34Z" fill="#999" stroke="#0e061e" stroke-miterlimit="10" stroke-width="3.11"/><path d="M576.32,1070.49h12.54v7.34H576.32Z" fill="#686868" stroke="#030011" stroke-linejoin="round" stroke-width="3.26"/><path d="M605.44,1077.83v-29.34h-22v-7.34h56.28v7.34H618v29.34Z" fill="#686868" stroke="#030011" stroke-linejoin="round" stroke-width="3.26"/><path d="M633.49,1070.49H646v7.34H633.49Z" fill="#686868" stroke="#030011" stroke-linejoin="round" stroke-width="3.26"/><path d="M655.89,1077.83v-36.68h12.55v14.72h31.27v-14.72h12.46v36.68H699.71v-14.62H668.44v14.62Z" fill="#686868" stroke="#030011" stroke-linejoin="round" stroke-width="3.26"/><path d="M722,1070.49h12.54v7.34H722Z" fill="#686868" stroke="#030011" stroke-linejoin="round" stroke-width="3.26"/><path d="M514.12,1041.5h53.23v7.33H514.12Zm0,29.33h53.23v7.34H514.12Zm0-14.66H564v7.33H514.12Z" fill="#686868" stroke="#030011" stroke-linejoin="round" stroke-width="3.26"/><path d="M514.12,1035.34h53.23v7.34H514.12Zm0,29.34h53.23V1072H514.12Zm0-14.67H564v7.34H514.12Z" fill="#d6d6d6"/><path d="M514.12,1035.34h53.23v7.34H514.12Zm0,29.34h53.23V1072H514.12Zm0-14.67H564v7.34H514.12Z" fill="none" stroke="#0e061e" stroke-linecap="round" stroke-linejoin="round" stroke-width="3.15"/><path d="M576.32,1064.68h12.54V1072H576.32Z" fill="#d6d6d6"/><path d="M576.32,1064.68h12.54V1072H576.32Z" fill="none" stroke="#0e061e" stroke-linecap="round" stroke-linejoin="round" stroke-width="3.15"/><path d="M605.44,1072v-29.33h-22v-7.34h56.28v7.34H618V1072Z" fill="#d6d6d6"/><path d="M605.44,1072v-29.33h-22v-7.34h56.28v7.34H618V1072Z" fill="none" stroke="#0e061e" stroke-linecap="round" stroke-linejoin="round" stroke-width="3.15"/><path d="M633.49,1064.68H646V1072H633.49Z" fill="#bcbcbc" stroke="#0e061e" stroke-miterlimit="10" stroke-width="3.11"/><path d="M655.89,1072v-36.67h12.55v14.72h31.27v-14.72h12.46V1072H699.71V1057.4H668.44V1072Z" fill="#d6d6d6"/><path d="M655.89,1072v-36.67h12.55v14.72h31.27v-14.72h12.46V1072H699.71V1057.4H668.44V1072Z" fill="none" stroke="#0e061e" stroke-linecap="round" stroke-linejoin="round" stroke-width="3.15"/><path d="M722,1064.68h12.54V1072H722Z" fill="#d6d6d6"/><path d="M722,1064.68h12.54V1072H722Z" fill="none" stroke="#0e061e" stroke-linecap="round" stroke-linejoin="round" stroke-width="3.15"/><path d="M623.87,1007.79c-39.76,0-111.95,17.14-111.95,17.14v4.87h223.9v-5.24C710.17,1014.21,663.16,1007.79,623.87,1007.79Z" fill="#686868" stroke="#030011" stroke-linejoin="round" stroke-width="3.26"/><path d="M623.87,1002.55c-45.55,0-86,8.62-111.95,22h223.9C709.92,1011.17,669.42,1002.55,623.87,1002.55Z" fill="#d6d6d6"/><path d="M623.87,1002.55c-45.55,0-86,8.62-111.95,22h223.9C709.92,1011.17,669.42,1002.55,623.87,1002.55Z" fill="none" stroke="#0e061e" stroke-linecap="round" stroke-linejoin="round" stroke-width="3.15"/><path d="M623.87,1123.12c53.85,0,100-13.22,119.36-32v-4.78H504.51v4.78C523.88,1109.9,570,1123.12,623.87,1123.12Z" fill="#686868" stroke="#030011" stroke-linejoin="round" stroke-width="3.26"/><path d="M623.87,1118.34c53.85,0,100-13.22,119.36-32H504.51C523.88,1105.12,570,1118.34,623.87,1118.34Z" fill="#d6d6d6" stroke="#0e061e" stroke-linecap="round" stroke-linejoin="round" stroke-width="3.15"/><text transform="translate(570.72 1108.33) scale(2.29 1)" font-size="21.3" fill="#030011" font-family="Furore, Furore" letter-spacing="0.04em">QR<tspan x="32.94" y="0" letter-spacing="0.08em">T</tspan></text></g></g></svg>