<svg id="Layer_1" data-name="Layer 1" xmlns="http://www.w3.org/2000/svg" viewBox="0 0 960.00055 321.67969"><defs><style>.cls-1,.cls-2{fill:none;stroke:#fff;}.cls-1{stroke-linecap:round;stroke-linejoin:round;stroke-width:5px;stroke-dasharray:0 14.922;}.cls-3,.cls-7{font-size:14px;}.cls-11,.cls-3,.cls-7{fill:#fff;}.cls-3{font-family:OpenSans-Regular, Open Sans;}.cls-4{letter-spacing:0.15001em;}.cls-5{letter-spacing:0.149em;}.cls-6{letter-spacing:0.14997em;}.cls-7{font-family:OpenSans-SemiBold, Open Sans;font-weight:700;}.cls-8{letter-spacing:0.14903em;}.cls-9{letter-spacing:0.15004em;}.cls-10{fill:#c61761;}</style></defs><title>Roadmap</title><line class="cls-1" x1="17.4219" y1="167.9248" x2="950.03888" y2="167.9248"/><polyline class="cls-2" points="46.651 92.925 21.651 92.925 21.651 167.925"/><polyline class="cls-2" points="309.065 92.925 259.065 92.925 284.065 92.925 284.065 167.925"/><polyline class="cls-2" points="570.979 92.925 520.979 92.925 545.979 92.925 545.979 167.925"/><polyline class="cls-2" points="832.893 92.925 782.893 92.925 807.893 92.925 807.893 167.925"/><polyline class="cls-2" points="912.849 242.925 937.849 242.925 937.849 167.925"/><polyline class="cls-2" points="650.436 242.925 700.436 242.925 675.436 242.925 675.436 167.925"/><polyline class="cls-2" points="388.522 242.925 438.522 242.925 413.522 242.925 413.522 167.925"/><polyline class="cls-2" points="126.608 242.925 176.608 242.925 151.608 242.925 151.608 167.925"/><text class="cls-3" transform="translate(21.15088 28.8252)"><tspan class="cls-4">8</tspan><tspan class="cls-5" x="10.10498" y="0">/</tspan><tspan class="cls-4" x="17.33154" y="0">10</tspan><tspan class="cls-5" x="37.5415" y="0">/</tspan><tspan class="cls-6" x="44.76807" y="0">1</tspan><tspan x="54.87256" y="0">8</tspan></text><text class="cls-7" transform="translate(21.15088 55.62109)"><tspan class="cls-5">Beta</tspan><tspan class="cls-6" x="39.27686" y="0"> </tspan><tspan class="cls-5" x="45.01318" y="0">Acce</tspan><tspan class="cls-4" x="84.54297" y="0">s</tspan><tspan x="93.4585" y="0">s</tspan></text><text class="cls-7" transform="translate(121.53125 55.62109)"> </text><text class="cls-7" transform="translate(21.15088 72.4209)"><tspan class="cls-4">S</tspan><tspan class="cls-5" x="9.79736" y="0">a</tspan><tspan class="cls-4" x="20.00439" y="0">l</tspan><tspan class="cls-5" x="26.00781" y="0">e</tspan><tspan class="cls-4" x="36.16016" y="0">s </tspan><tspan class="cls-8" x="50.81201" y="0">Beg</tspan><tspan class="cls-4" x="82.16504" y="0">in</tspan><tspan x="99.15479" y="0">s</tspan></text><text class="cls-3" transform="translate(252.10889 28.8252)"><tspan class="cls-4">9</tspan><tspan class="cls-5" x="10.10498" y="0">/</tspan><tspan class="cls-4" x="17.33154" y="0">10</tspan><tspan class="cls-5" x="37.5415" y="0">/</tspan><tspan class="cls-6" x="44.76807" y="0">1</tspan><tspan x="54.87256" y="0">8</tspan></text><text class="cls-7" transform="translate(230.2832 55.62109)"><tspan class="cls-5">Beta</tspan><tspan class="cls-6" x="39.27686" y="0" xml:space="preserve"> T</tspan><tspan class="cls-5" x="55.03613" y="0">e</tspan><tspan class="cls-4" x="65.18848" y="0">s</tspan><tspan class="cls-5" x="74.104" y="0">t</tspan><tspan class="cls-4" x="81.69287" y="0">in</tspan><tspan x="98.68311" y="0">g</tspan></text><text class="cls-7" transform="translate(336.83691 55.62109)"> </text><text class="cls-7" transform="translate(251.19922 72.4209)"><tspan class="cls-5">P</tspan><tspan class="cls-4" x="10.69922" y="0">h</tspan><tspan class="cls-5" x="21.68604" y="0">a</tspan><tspan class="cls-4" x="31.89307" y="0">s</tspan><tspan class="cls-5" x="40.80859" y="0">e</tspan><tspan class="cls-4" x="50.96094" y="0"> </tspan><tspan x="56.69775" y="0">1</tspan></text><text class="cls-3" transform="translate(121.15283 274.13281)"><tspan class="cls-4">9</tspan><tspan class="cls-5" x="10.10498" y="0">/</tspan><tspan class="cls-4" x="17.33154" y="0">10</tspan><tspan class="cls-5" x="37.5415" y="0">/</tspan><tspan class="cls-6" x="44.76807" y="0">1</tspan><tspan x="54.87256" y="0">8</tspan></text><text class="cls-7" transform="translate(102.40723 300.92871)"><tspan class="cls-5">Beta</tspan><tspan class="cls-6" x="39.27686" y="0"> </tspan><tspan class="cls-5" x="45.01318" y="0">Acce</tspan><tspan class="cls-4" x="84.54297" y="0">s</tspan><tspan x="93.4585" y="0">s</tspan></text><text class="cls-7" transform="translate(202.78711 300.92871)"> </text><text class="cls-7" transform="translate(107.90918 317.72852)"><tspan class="cls-4">S</tspan><tspan class="cls-5" x="9.79736" y="0">a</tspan><tspan class="cls-4" x="20.00439" y="0">l</tspan><tspan class="cls-5" x="26.00781" y="0">e</tspan><tspan class="cls-4" x="36.16016" y="0">s </tspan><tspan class="cls-8" x="50.81201" y="0">E</tspan><tspan class="cls-6" x="60.71191" y="0">n</tspan><tspan class="cls-8" x="71.69824" y="0">d</tspan><tspan x="82.50732" y="0">s</tspan></text><text class="cls-3" transform="translate(383.06494 274.13281)"><tspan class="cls-4">10</tspan><tspan class="cls-5" x="20.20996" y="0">/</tspan><tspan class="cls-4" x="27.43652" y="0">1</tspan><tspan class="cls-5" x="37.5415" y="0">/</tspan><tspan class="cls-6" x="44.76807" y="0">1</tspan><tspan x="54.87256" y="0">8</tspan></text><text class="cls-7" transform="translate(361.23926 300.92871)"><tspan class="cls-5">Beta</tspan><tspan class="cls-6" x="39.27686" y="0" xml:space="preserve"> T</tspan><tspan class="cls-5" x="55.03613" y="0">e</tspan><tspan class="cls-4" x="65.18848" y="0">s</tspan><tspan class="cls-5" x="74.104" y="0">t</tspan><tspan class="cls-4" x="81.69287" y="0">in</tspan><tspan x="98.68311" y="0">g</tspan></text><text class="cls-7" transform="translate(467.79297 300.92871)"> </text><text class="cls-7" transform="translate(382.15527 317.72852)"><tspan class="cls-5">P</tspan><tspan class="cls-4" x="10.69922" y="0">h</tspan><tspan class="cls-5" x="21.68604" y="0">a</tspan><tspan class="cls-4" x="31.89307" y="0">s</tspan><tspan class="cls-5" x="40.80859" y="0">e</tspan><tspan class="cls-4" x="50.96094" y="0"> </tspan><tspan x="56.69775" y="0">2</tspan></text><text class="cls-3" transform="translate(514.021 28.81055)"><tspan class="cls-4">11</tspan><tspan class="cls-5" x="20.20996" y="0">/</tspan><tspan class="cls-4" x="27.43652" y="0">1</tspan><tspan class="cls-5" x="37.5415" y="0">/</tspan><tspan class="cls-6" x="44.76807" y="0">1</tspan><tspan x="54.87256" y="0">8</tspan></text><text class="cls-7" transform="translate(492.19482 55.60645)"><tspan class="cls-5">Beta</tspan><tspan class="cls-6" x="39.27686" y="0" xml:space="preserve"> T</tspan><tspan class="cls-5" x="55.03613" y="0">e</tspan><tspan class="cls-4" x="65.18848" y="0">s</tspan><tspan class="cls-5" x="74.104" y="0">t</tspan><tspan class="cls-4" x="81.69287" y="0">in</tspan><tspan x="98.68311" y="0">g</tspan></text><text class="cls-7" transform="translate(598.74902 55.60645)"> </text><text class="cls-7" transform="translate(513.11084 72.40723)"><tspan class="cls-5">P</tspan><tspan class="cls-4" x="10.69922" y="0">h</tspan><tspan class="cls-5" x="21.68604" y="0">a</tspan><tspan class="cls-4" x="31.89307" y="0">s</tspan><tspan class="cls-5" x="40.80859" y="0">e</tspan><tspan class="cls-4" x="50.96094" y="0"> </tspan><tspan x="56.69775" y="0">3</tspan></text><text class="cls-3" transform="translate(639.92285 274.11914)"><tspan class="cls-6">12</tspan><tspan class="cls-5" x="20.20996" y="0">/</tspan><tspan class="cls-6" x="27.43652" y="0">12</tspan><tspan class="cls-5" x="47.64648" y="0">/</tspan><tspan class="cls-6" x="54.87305" y="0">1</tspan><tspan x="64.97754" y="0">8</tspan></text><text class="cls-7" transform="translate(604.72656 300.91504)"><tspan class="cls-6">M</tspan><tspan class="cls-5" x="15.01953" y="0">a</tspan><tspan class="cls-9" x="25.22656" y="0">in</tspan><tspan class="cls-5" x="42.2168" y="0">Net</tspan><tspan class="cls-9" x="73.00879" y="0"> </tspan><tspan class="cls-5" x="78.74609" y="0">Re</tspan><tspan class="cls-6" x="99.93262" y="0">l</tspan><tspan class="cls-5" x="105.93555" y="0">ea</tspan><tspan class="cls-6" x="126.2959" y="0">s</tspan><tspan x="135.21094" y="0">e </tspan></text><text class="cls-7" transform="translate(643.46484 317.71484)"><tspan class="cls-6">of </tspan><tspan class="cls-5" x="23.56738" y="0">E</tspan><tspan class="cls-9" x="33.4668" y="0">.T.</tspan><tspan x="55.38672" y="0">H</tspan></text><text class="cls-3" transform="translate(770.87891 11.99707)"><tspan class="cls-6">12</tspan><tspan class="cls-5" x="20.20996" y="0">/</tspan><tspan class="cls-6" x="27.43652" y="0">12</tspan><tspan class="cls-5" x="47.64648" y="0">/</tspan><tspan class="cls-6" x="54.87305" y="0">1</tspan><tspan x="64.97754" y="0">8</tspan></text><text class="cls-7" transform="translate(735.68262 38.79297)"><tspan class="cls-6">M</tspan><tspan class="cls-5" x="15.01953" y="0">a</tspan><tspan class="cls-9" x="25.22656" y="0">in</tspan><tspan class="cls-5" x="42.2168" y="0">Net</tspan><tspan class="cls-9" x="73.00879" y="0"> </tspan><tspan class="cls-5" x="78.74609" y="0">Re</tspan><tspan class="cls-6" x="99.93262" y="0">l</tspan><tspan class="cls-5" x="105.93555" y="0">ea</tspan><tspan class="cls-6" x="126.2959" y="0">s</tspan><tspan x="135.21094" y="0">e </tspan></text><text class="cls-7" transform="translate(743.91504 55.59277)"><tspan class="cls-6">of </tspan><tspan class="cls-5" x="23.56738" y="0">Game</tspan><tspan class="cls-9" x="71.64844" y="0" xml:space="preserve"> Lo</tspan><tspan class="cls-5" x="97.72559" y="0">bb</tspan><tspan x="119.34277" y="0">y </tspan></text><text class="cls-7" transform="translate(792.04688 72.39258)"><tspan class="cls-6">(</tspan><tspan class="cls-5" x="6.53613" y="0">v</tspan><tspan class="cls-9" x="16.11426" y="0">1</tspan><tspan x="26.20605" y="0">)</tspan></text><text class="cls-3" transform="translate(877.8252 274.10449)"><tspan class="cls-6">12</tspan><tspan class="cls-5" x="20.20996" y="0">/</tspan><tspan class="cls-6" x="27.43652" y="0">12</tspan><tspan class="cls-5" x="47.64648" y="0">/</tspan><tspan class="cls-6" x="54.87305" y="0">1</tspan><tspan x="64.97754" y="0">8</tspan></text><text class="cls-7" transform="translate(807.44727 300.90039)"><tspan class="cls-6">M</tspan><tspan class="cls-5" x="15.01953" y="0">a</tspan><tspan class="cls-9" x="25.22656" y="0">in</tspan><tspan class="cls-5" x="42.2168" y="0">Net</tspan><tspan class="cls-9" x="73.00879" y="0"> </tspan><tspan class="cls-5" x="78.74609" y="0">Re</tspan><tspan class="cls-6" x="99.93262" y="0">l</tspan><tspan class="cls-5" x="105.93555" y="0">ea</tspan><tspan class="cls-6" x="126.2959" y="0">s</tspan><tspan x="135.21094" y="0">e </tspan></text><text class="cls-7" transform="translate(829.44141 317.70117)"><tspan class="cls-6">of </tspan><tspan class="cls-5" x="23.56738" y="0">P</tspan><tspan class="cls-9" x="34.2666" y="0">l</tspan><tspan class="cls-5" x="40.27051" y="0">a</tspan><tspan class="cls-6" x="50.47754" y="0">s</tspan><tspan class="cls-5" x="59.39258" y="0">ma</tspan><tspan class="cls-9" x="85.07031" y="0"> </tspan><tspan class="cls-5" x="90.80762" y="0">NF</tspan><tspan x="113.39551" y="0">T</tspan></text><polygon class="cls-10" points="0 155.425 0 180.425 21.65 192.924 43.302 180.425 43.302 155.425 21.65 142.925 0 155.425"/><polygon class="cls-11" points="130.957 155.425 130.957 180.425 152.608 192.925 174.258 180.425 174.258 155.425 152.608 142.925 130.957 155.425"/><polygon class="cls-11" points="261.914 155.425 261.914 180.425 283.565 192.925 305.215 180.425 305.215 155.425 283.565 142.925 261.914 155.425"/><polygon class="cls-11" points="392.871 155.425 392.871 180.425 414.522 192.925 436.172 180.425 436.172 155.425 414.522 142.925 392.871 155.425"/><polygon class="cls-11" points="523.828 155.425 523.828 180.425 545.479 192.925 567.129 180.425 567.129 155.425 545.479 142.925 523.828 155.425"/><polygon class="cls-11" points="654.785 155.425 654.785 180.425 676.436 192.925 698.086 180.425 698.086 155.425 676.436 142.925 654.785 155.425"/><polygon class="cls-11" points="785.742 155.425 785.742 180.425 807.393 192.925 829.043 180.425 829.043 155.425 807.393 142.925 785.742 155.425"/><polygon class="cls-11" points="916.699 155.425 916.699 180.425 938.349 192.924 960.001 180.425 960.001 155.425 938.349 142.925 916.699 155.425"/></svg>