<svg id="Layer_1" data-name="Layer 1" xmlns="http://www.w3.org/2000/svg" viewBox="0 0 960 351.59766"><defs><style>.cls-1,.cls-2{fill:none;stroke:#fff;}.cls-1{stroke-linecap:round;stroke-linejoin:round;stroke-width:3px;stroke-dasharray:0 10;}.cls-3{font-size:18px;font-family:Rajdhani-SemiBold, Rajdhani;font-weight:700;}.cls-3,.cls-5{fill:#fff;}.cls-4{fill:#c61761;}</style></defs><title>Roadmap</title><line class="cls-1" x1="16.4219" y1="165.79883" x2="949.03888" y2="165.79883"/><polyline class="cls-2" points="47.5 90.799 22.5 90.799 22.5 165.799"/><text class="cls-3" transform="translate(20.65112 14.78711)">10/5/18<tspan x="0" y="25">Beta Access</tspan><tspan x="0" y="45">Sales Begins</tspan></text><polygon class="cls-4" points="0 153.299 0 178.299 22.499 190.799 45 178.299 45 153.299 22.499 140.799 0 153.299"/><polyline class="cls-2" points="180.5 240.799 230.5 240.799 205.5 240.799 205.5 165.799"/><text class="cls-3" transform="translate(186.25803 280.58594)">T.B.D.<tspan x="-24.56055" y="25">Beta Access</tspan><tspan x="-20.43848" y="45">Sales Ends</tspan></text><polygon class="cls-5" points="183 153.299 183 178.299 205.5 190.799 228 178.299 228 153.299 205.5 140.799 183 153.299"/><polyline class="cls-2" points="413.5 90.799 363.5 90.799 388.5 90.799 388.5 165.799"/><text class="cls-3" transform="translate(363.2193 14.78711)">12/1/18<tspan x="-20.82568" y="25">Beta Testing</tspan><tspan x="-2.16895" y="45">Phase 1</tspan></text><polygon class="cls-5" points="366 153.299 366 178.299 388.5 190.799 411 178.299 411 153.299 388.5 140.799 366 153.299"/><polyline class="cls-2" points="545.502 240.799 595.502 240.799 570.502 240.799 570.502 165.799"/><text class="cls-3" transform="translate(550.76465 280.58594)">1/1/19<tspan x="-25.37061" y="25">Beta Testing</tspan><tspan x="-8.15381" y="45">Phase 2</tspan></text><polygon class="cls-5" points="549 153.299 549 178.299 571.5 190.799 594 178.299 594 153.299 571.5 140.799 549 153.299"/><polyline class="cls-2" points="780 90.799 730 90.799 755 90.799 755 165.799"/><text class="cls-3" transform="translate(732.32452 14.78711)">2/1/19<tspan x="-23.93066" y="25">Beta Testing</tspan><tspan x="-6.86719" y="45">Phase 3</tspan></text><polygon class="cls-5" points="732 153.299 732 178.299 754.5 190.799 777 178.299 777 153.299 754.5 140.799 732 153.299"/><polyline class="cls-2" points="911.849 240.799 936.849 240.799 936.849 165.799"/><text class="cls-3" transform="translate(892.19104 280.58594)">3/1/19<tspan x="-78.51465" y="25">MainNet Release</tspan><tspan x="-110.66162" y="45">of E.T.H., Game Lobby</tspan><tspan x="-77.88477" y="65">and Marketplace</tspan></text><polygon class="cls-5" points="915 153.299 915 178.299 937.499 190.798 960 178.299 960 153.299 937.499 140.799 915 153.299"/></svg>